
<svg width="500" height="500" xmlns="http://www.w3.org/2000/svg">

 <g>
  <title>background</title>
  <rect fill="none" id="canvas_background" height="502" width="502" y="-1" x="-1"/>
 </g>
 <g>
  <title>Layer 1</title>
  <path d="m357.2,297.7c-31.1,0 -53.5,-23.2 -53.5,-51.9l0,-0.3c-0.1,-19.8 11.1,-38 29,-46.7c-2.5,-0.2 -4.9,-0.1 -7.4,0.3c0,0 5.8,-5.3 13.2,-4.5c1.7,0.2 2.9,0.3 3.9,0.4c0,0.1 -0.1,0.1 -0.1,0.2c0.2,-0.1 0.4,-0.1 0.6,-0.2l-0.5,0c1.8,-2.7 4,-5.1 6.6,-7c-1,2 -1.9,4.1 -2.6,6.2c3.7,-0.7 7.4,-1 11.1,-1c31.1,0 53.5,23.2 53.5,51.9l0,0.3c-0.1,28.7 -22.7,52.3 -53.8,52.3zm30.5,-52.3c0,-17.3 -12.7,-31.7 -30.5,-31.7s-30.3,14.1 -30.3,31.5l0,0.3c0,17.3 12.7,31.7 30.5,31.7s30.3,-14.1 30.3,-31.5l0,-0.3zm29.5,40.4c-0.1,6 4.8,11 10.8,11.1s11,-4.8 11.1,-10.8c0,-0.1 0,-0.2 0,-0.3l0,-33c0,-10.4 5.3,-15.7 13.7,-15.7s13.2,5.3 13.2,15.7l0,33c-0.1,6 4.8,11 10.8,11.1s11,-4.8 11.1,-10.8c0,-0.1 0,-0.2 0,-0.3l0,-40c0,-17.7 -9.7,-28.7 -26.2,-28.7c-11.1,0 -17.6,5.9 -22.6,12.4l0,-0.9c0.1,-6 -4.8,-11 -10.8,-11.1s-11,4.8 -11.1,10.8c0,0.1 0,0.2 0,0.3l0,57.2l0,0zm-51.4,-21.7c6.9,-2.5 10.3,-5.2 14.6,-13.2c-1.3,10.8 -8.8,16.9 -15.7,18.2s-14.7,0.5 -19.5,-4.6c5.1,2.2 13.6,2.1 20.6,-0.4z" class="path1" fill="#8db654" id="On"/>
  <path d="m61.5,298.1c12.5,0 24.7,-3.5 35.3,-10.1c5.3,-3.2 7.8,-7.6 7.8,-14.1l0,-24.5c0.1,-6.1 -4.8,-11.1 -10.9,-11.1c-0.1,0 -0.1,0 -0.2,0l-23.3,0c-5.3,0 -9.7,4.3 -9.7,9.7c0,5.3 4.3,9.5 9.6,9.5c0,0 0.1,0 0.1,0l12.9,0l0,14.4c-5.6,4 -12.8,6.1 -20.9,6.1c-17.9,0 -30.5,-13.6 -30.5,-32l0,-0.3c0,-17.2 12.8,-31.5 29,-31.5c9.5,0 16,2.6 22,6.9c1.9,1.5 4.3,2.3 6.8,2.3c6,0 11,-4.9 11,-11c0,0 0,0 0,0c0,-3.5 -1.7,-6.9 -4.6,-8.9c-9.1,-6.3 -19.2,-9.8 -34.4,-9.8c-30.5,0 -52.9,23.5 -52.9,52.2l0,0.3c-0.1,29.9 21.5,51.9 52.9,51.9zm50.1,-11.8c-0.1,6 4.8,11 10.8,11.1c6,0.1 11,-4.8 11.1,-10.8c0,-0.1 0,-0.2 0,-0.3l0,-20.5c0,-15.6 7.2,-24.1 18.3,-26.7c4.9,-0.9 8.4,-5.3 8.2,-10.2c0,-6.2 -3.9,-10.7 -10.7,-10.7c-6.5,0 -12.7,6.9 -15.9,14.4l0,-3.5c0.1,-6 -4.8,-11 -10.8,-11.1c-6,-0.1 -11,4.8 -11.1,10.8c0,0.1 0,0.2 0,0.3l0,57.2l0.1,0zm74.1,11.6c10.7,0 18,-3.9 23.3,-9.8l0,0.1c0,4.6 4.2,9.1 10.5,9.1c5.8,0.1 10.6,-4.6 10.7,-10.4c0,0 0,-0.1 0,-0.1l0,-35.3c0,-10.4 -2.6,-18.9 -8.4,-24.7c-5.5,-5.5 -14.1,-8.7 -26.1,-8.7c-10.2,0 -17.7,1.4 -24.6,4c-3.6,1.3 -5.9,4.7 -5.9,8.5c0,4.9 4,8.9 8.9,8.9c0.1,0 0.1,0 0.2,0c1.1,0 2.2,-0.2 3.2,-0.6c4.9,-1.5 10,-2.2 15.1,-2.2c11,0 16.6,5 16.6,14.1l0,1.3c-6.1,-2.2 -12.4,-3.2 -18.9,-3.2c-18.3,0 -31.1,7.8 -31.1,24.7l0,0.3c0,15.6 12,24 26.5,24l0,0zm4.6,-15.2c-7.1,0 -12,-3.5 -12,-9.4l0,-0.3c0,-6.9 5.8,-10.7 15.1,-10.7c5.3,0 12.3,1.2 16,2.9l0,3.9c0.1,8 -8.8,13.6 -19.1,13.6l0,0zm48.2,3.6c0,6 5,10.9 11,10.9c5.9,0 10.8,-4.8 10.9,-10.7l0,-0.1c5.2,6.2 12.4,11.5 24.1,11.5c18.3,0 35.2,-14.1 35.2,-40l0,-0.3c0,-25.8 -17.1,-40 -35.2,-40c-11.4,0 -18.7,5.3 -24.1,12.6l0,-30.5c0.1,-6 -4.8,-11 -10.8,-11.1s-11,4.8 -11.1,10.8c0,0.1 0,0.2 0,0.3l0,86.6zm40.8,-6.9c-10.6,0 -19.3,-8.5 -19.3,-21.3l0,-0.3c0,-12.8 8.8,-21.3 19.3,-21.3s19.5,8.5 19.5,21.3l0,0.3c0,12.9 -9,21.3 -19.5,21.3l0,0z" class="path2" fill="#575757" id="Grab"/>
 </g>
</svg>