
<svg xmlns="http://www.w3.org/2000/svg" data-name="Layer 1" width="250" height="250"><rect id="backgroundrect" width="100%" height="100%" x="0" y="0" fill="none" stroke="none" class="" style=""/><defs><style>.cls-1{fill:#ef4135;}.cls-2{fill:#231f20;}</style></defs><title>hero</title><g class="currentLayer" style=""><title>Layer 1</title><g class=""><polygon class="cls-1" points="48.724718610298396,209.94288092707842 22.0675997837468,209.94288092707842 22.0675997837468,190.25792673481823 5.176656723022461,190.25792673481823 5.176656723022461,243.71271744833115 22.0675997837468,243.71271744833115 22.0675997837468,222.2958301766693 48.724718610298396,222.2958301766693 48.724718610298396,243.71271744833115 65.58325539084467,243.71271744833115 65.58325539084467,190.25792673481823 48.724718610298396,190.25792673481823 48.724718610298396,209.94288092707842 " id="svg_1"/><path class="cls-1" d="M89.89606415047285,210.71323844354146 c1.4206327633539404,-7.217271859125764 6.033638010138214,-10.987080778729684 13.504113720094479,-10.987080778729684 c7.562303683252908,0 12.704670187864886,4.4472818268950585 12.9639491712907,10.987080778729684 h-26.468062891385173 zm13.595941693391124,-21.85396475132707 c-18.58706212433804,0 -31.0594615562173,11.101814093674152 -31.0594615562173,27.754535234185376 c0,17.324730556614533 12.326555003702241,28.333665300095547 31.594224459533045,28.333665300095547 c15.383886349931633,0 25.9278983425814,-6.108183147995915 29.903509421777212,-17.668930501447935 H115.69432300134135 c-1.6204936464113364,4.223278688193956 -5.504276752310509,6.343113269072682 -11.3056440064631,6.343113269072682 c-8.712854172204956,0 -13.94164700462554,-4.474599282834217 -14.384581934644636,-12.238220260743157 h43.92618110872332 c0,-1.8739774774262958 0.12423784622486948,-2.5350599111539407 0.12423784622486948,-3.4310724659583496 c0,-17.99673997271784 -11.791792100386498,-29.098554066391994 -30.56251017131783,-29.098554066391994 " id="svg_2"/><path class="cls-1" d="M162.77506507507874,189.79353068533356 c-5.974219909769798,1.0216728521245397 -21.30949145030909,5.0154849104295645 -21.30949145030909,25.252256270158426 v28.661474771365448 h17.07460138768746 V220.03395440998247 c0,-8.741585900530827 1.4098294723778635,-12.871985238531638 5.639317889511453,-15.527241955817882 c2.5765848977940267,-1.7865616184209885 6.314523575516177,-2.78091701460637 10.65744654789856,-2.78091701460637 a24.447847478859043,24.727761116126576 0 0 1 4.6292101832483885,0.43707929502654197 V190.0557782623495 s-6.82227825139173,-1.906758424553287 -16.696486203524817,-0.23493012107676647 " id="svg_3"/><path class="cls-1" d="M213.25344216079188,233.8128791856941 c-8.999141383070958,0 -14.249540797443691,-6.326722795509187 -14.249540797443691,-16.876724279212333 c0,-10.659271307459779 5.142366504611979,-16.88765126158799 14.249540797443691,-16.88765126158799 c8.977534801118809,0 14.130704596706865,6.119110130371579 14.130704596706865,16.778381437831356 c0,10.78493160477991 -5.153169795588053,16.980530611781134 -14.130704596706865,16.980530611781134 m0,-44.969995967043275 c-19.14883325509397,0 -31.46998661330817,10.992544269917516 -31.46998661330817,28.093271687830953 c0,16.985994102968963 12.326555003702241,28.000392337637802 31.46998661330817,28.000392337637802 c18.9813822449648,0 31.32954383061919,-11.00893474348101 31.32954383061919,-28.000392337637802 c0,-17.10619090910126 -12.342759940166353,-28.093271687830953 -31.32954383061919,-28.093271687830953 " id="svg_4"/><polygon class="cls-2" points="140.64454605397646,7.334779262542725 140.64454605397646,78.46396671417091 179.72005986673526,55.03653191380539 179.72005986673526,32.302935606242215 140.64454605397646,7.334779262542725 " id="svg_5"/><polygon class="cls-2" points="179.72005986673526,134.02768175090017 179.72005986673526,85.1512818595292 140.64454605397646,109.463823629454 179.72005986673526,134.02768175090017 " id="svg_6"/><polygon class="cls-1" points="72.43254433483276,131.1811905750946 111.50803417697193,155.75598966714546 111.50803417697193,54.02577094761858 72.43254433483276,29.05762139501047 72.43254433483276,131.1811905750946 " id="svg_7"/></g></g></svg>