
<svg width="500" height="500" xmlns="http://www.w3.org/2000/svg">
 <metadata id="metadata59">image/svg+xml</metadata>

 <g>
  <title>background</title>
  <rect fill="none" id="canvas_background" height="502" width="502" y="-1" x="-1"/>
 </g>
 <g>
  <title>Layer 1</title>
  <g transform="matrix(0.5987045061661437,0,0,0.5534780265632465,-68.29085614189049,-138.77648025210692) " id="g2867">
   <g id="#fefefeff">
    <path fill="#fefefe" d="m527.600182,403.20743c15.88,-0.41 31.84,-0.36 47.53,2.26c31.27,4.38 61.58,15.32 88.67,31.49c35.15,21.11 64.88,51.26 85.02,87.01c25.37,44.1 35.48,96.65 28.75,147.04c-4.44,35.04 -17.18,68.95 -36.57,98.46c-31.4,47.9 -80.38,84.18 -135.7,99.3c-59.72,16.97 -126.06,9.32 -180.19,-21.15c-59.49,-32.68 -104.08,-91.86 -117.59,-158.53c-6.27,-27.22 -6.57,-55.59 -2.84,-83.19c3.37,-18.87 7.75,-37.71 15.46,-55.33c22.75,-55.72 67.68,-101.86 122.58,-126.45c12.03,-5.62 24.73,-9.61 37.43,-13.41c15.58,-3.84 31.45,-6.45 47.45,-7.5m-9.92,10.32c-8.87,1.11 -17.77,2.21 -26.46,4.37c-8.11,2.07 -16.37,3.67 -24.15,6.86c-17.02,5.72 -33.28,13.61 -48.36,23.33c-47.79,29.96 -83.62,78.35 -98.39,132.79c-2.4,10.18 -5.35,20.3 -6.09,30.78c-2.72,19.88 -2.43,40.13 0.14,60.02c6.76,49.28 30.21,96.15 65.85,130.9c19.1,19.37 42.06,34.73 66.69,46.17c33.78,15.3 71.27,22.2 108.27,20.22c4.97,-1.04 10.08,-0.59 15.05,-1.53c25.51,-3.21 50.53,-10.6 73.52,-22.17c54.31,-26.68 97.09,-75.75 115.95,-133.26c2.06,-6.48 4.74,-12.77 6.35,-19.39c2.31,-9.89 3.72,-19.98 4.46,-30.1c0.07,-5.97 0.12,-11.94 0.82,-17.88c0.52,-7.68 -1.03,-15.31 -0.85,-23.01c-2.04,-20.13 -5.95,-40.2 -13.23,-59.13c-17.42,-47.86 -51.57,-89.36 -94.94,-116c-42.73,-26.7 -94.57,-38.35 -144.63,-32.97z" id="path5"/>
    <path fill="#fefefe" d="m361.690182,593.23743c5.77,-2.32 12.33,5.91 7.64,10.59c-2.95,4.11 -9.99,3.23 -11.88,-1.46c-2.33,-3.59 1.14,-7.49 4.24,-9.13z" id="path7"/>
    <path fill="#fefefe" d="m392.480182,596.98743c8.65,-4.37 19.35,-3.97 27.96,0.3c6.11,2.66 11.51,7.85 13.04,14.5c36.4,0.36 72.82,0.15 109.22,0.25c-0.08,2.72 -0.08,5.45 0.02,8.17c-1.77,0.1 -3.54,0.17 -5.31,0.26c0.28,17.42 -0.4,34.81 -0.48,52.22c-4.18,0.21 -8.36,0.15 -12.54,0.06c0.28,-9.21 0.23,-18.42 0.34,-27.62c-4.2,0.04 -8.4,-0.11 -12.59,-0.01c-2.5,2.71 -4.41,6.27 -8.2,7.39c-5.6,2.44 -11.36,-3.37 -11.27,-8.87c-0.79,-4.78 4.03,-8.64 8.45,-8.66c8.16,-0.15 16.39,0.63 24.52,-0.47c-0.07,-4.7 0.08,-9.41 0.36,-14.1c-12.81,0.13 -25.63,-0.05 -38.44,0.2c-0.04,17.53 -0.95,35.05 -0.56,52.6c-4.23,-0.16 -8.45,-0.14 -12.68,-0.01c-0.09,-4.67 0,-9.34 0.1,-14.01c-6.21,3.17 -14.02,3.95 -20.28,0.51c-7.05,-4.08 -12.07,-11.25 -13.75,-19.2c4.77,-1.47 10.06,-4.55 10.99,-9.91c0.76,-3.04 -0.88,-6.03 -3,-8.1c-3.37,-3.84 -8.97,-1.59 -13.39,-2.16c0.29,5.58 0.59,11.2 0.01,16.78c-5.27,-0.25 -10.54,0.09 -15.81,0.11c-3.19,0.15 -6.66,-0.53 -9.45,1.42c0.14,1.26 0.31,2.52 0.48,3.78c8.48,2.18 17.78,1.33 25.66,5.59c1.96,1.03 3.96,2.48 4.75,4.64c0.88,7.69 -3.61,15.76 -10.85,18.72c-10.3,4.49 -22.37,1.48 -31.25,-4.82c1.88,-2.45 4.04,-4.68 5.99,-7.08c6.8,2.63 14.93,5.43 21.73,1.29c2.37,-0.86 1.34,-3.64 1.34,-5.51c-7.78,-2.42 -16.6,-1.82 -23.74,-6.28c-3.72,-2.36 -7.2,-6.73 -5.49,-11.35c0.07,-4.42 3.24,-8.05 7.18,-9.71c4.72,-2.52 10.21,-1.68 15.34,-1.72c0.04,-1.92 0.07,-3.85 0.12,-5.76c-9.99,-0.13 -19.98,-0.01 -29.96,-0.07c0.17,17.57 -0.08,35.14 0.04,52.7c-3.77,0.09 -7.54,0.05 -11.3,0.23c-0.42,-17.49 -0.22,-35 -0.3,-52.5c-3.05,-1.19 -6.71,-0.11 -10,-0.55c-0.04,5.3 0.33,10.62 -0.22,15.9c-9.17,-0.05 -18.52,-0.57 -27.57,1.11c-0.16,1.83 -0.99,4.93 1.62,5.33c7.56,0.84 15.84,-1.76 22.89,2c5.38,2.87 6.11,9.66 6.05,15.12c0.19,3.99 -2.25,7.43 -4.58,10.43c-3.17,3.68 -9.56,2.15 -12.09,6.52c0.35,2.47 2.7,3.84 4.45,5.32c-2.34,2.57 -4.33,5.42 -6.74,7.93c-4.8,-3.48 -8.84,-8.03 -11.35,-13.43c-4.86,-0.33 -10.03,-2.87 -12.1,-7.47c-0.71,-3.29 -1.28,-7.6 1.74,-9.94c2.65,-2.74 7.03,-2.3 10.33,-1.14c3.4,1.06 5.12,4.6 8.36,5.93c4.68,0.65 8.37,-3.17 9.8,-7.29c-5.75,-5.94 -14.62,-4.1 -21.9,-6.02c-4.65,-0.85 -8.06,-5.23 -8.29,-9.87c-0.08,-3.36 -0.48,-7.53 2.59,-9.77c6.11,-6.01 15.23,-5.56 23.17,-5.67c-0.21,-1.61 0.23,-3.41 -0.58,-4.88c-8.18,-0.01 -16.37,-0.1 -24.55,0.06c0.01,-2.83 0,-5.66 -0.03,-8.48c16.46,-0.15 32.93,0.13 49.38,-0.21c1.7,-6.47 6.61,-11.91 12.62,-14.73m-0.6,15.04c9.66,0.24 19.32,-0.11 28.98,-0.12c-1.19,-6.23 -7.75,-9.56 -13.66,-9.25c-6.4,-0.63 -14.07,2.35 -15.32,9.37m70.23,8.46c1.18,5.56 2.29,11.66 -0.07,17.07c-1.37,3.53 -4.65,5.7 -7.19,8.31c1.51,2.21 3.33,5 6.34,4.98c5.04,0.73 10,-2.91 11.6,-7.61c2.27,-7.4 1.34,-15.2 1.49,-22.81c-4.06,0.02 -8.11,0.04 -12.17,0.06z" id="path9"/>
    <path fill="#fefefe" d="m620.420182,595.11743c2.18,1.51 4.49,2.8 6.87,3.97c-2.61,4.96 -7.76,8 -12.98,9.54c-7.98,2.75 -17.46,-2.09 -20.34,-9.93c2.08,-1.18 4.39,-2.71 6.82,-2.72c2.3,1.58 4.5,3.63 7.42,3.89c4.63,0.93 9.07,-1.52 12.21,-4.75z" id="path11"/>
    <path fill="#fefefe" d="m556.140182,611.77743c10.82,-3.95 24.99,3.81 25.55,15.83c-0.41,5.27 -1.04,11.29 -5.3,14.97c2.14,2.09 4.94,4.06 5.39,7.24c0.84,4.63 1.89,10 -1.61,13.85c-7.67,11.2 -26.27,10.81 -34.22,0.17c-1.8,-2.33 -2.29,-5.33 -3.02,-8.11c2.51,-1.59 5.01,-3.2 7.53,-4.79c1.29,3.45 2.84,7.29 6.36,9.02c2.99,1.82 7.37,1.84 9.69,-1.08c3.32,-3.02 2.19,-7.86 2.07,-11.81c-1.86,-4.93 -8.04,-2.69 -12.02,-3.29c0.1,-2.29 0.21,-4.57 0.3,-6.85c5.83,1.12 10.63,-4.13 11.91,-9.33c-0.26,-3.21 -3.51,-5.36 -6.59,-4.87c-4.26,-0.95 -5.97,4.62 -9.85,4.75c-2.2,-1.08 -4.01,-2.81 -5.97,-4.25c0.44,-5.44 4.53,-10.1 9.78,-11.45z" id="path13"/>
    <path fill="#fefefe" d="m584.380182,611.85743c56.47,-0.08 112.94,-0.11 169.4,0.02c-0.12,2.81 -0.12,5.63 -0.03,8.44c-3.3,0.05 -6.59,-0.04 -9.88,-0.06c0.17,17.54 -0.09,35.07 0.12,52.61c-4.08,0.1 -8.18,0.3 -12.23,-0.22c0.24,-8.9 -0.37,-17.8 -0.44,-26.7c-1.22,0.27 -2.38,0.7 -3.47,1.3c-5.82,3.2 -12.19,5.31 -17.81,8.88c-1.8,-3.06 -3.18,-6.33 -4.86,-9.46c2.06,-1.29 4.58,-2.11 6.17,-4.02c-1.53,-2.18 -4.31,-3.81 -7.02,-3.03c-4.2,1.29 -7.91,5.41 -7.34,10.02c0.02,6.24 5.8,9.89 9.65,13.95c-1.48,3.14 -3.11,6.2 -4.75,9.26c-7.45,-4.44 -13.78,-11.29 -16.26,-19.73c-1.13,-5.86 -0.97,-12.43 2.64,-17.46c3.3,-5.9 10.29,-9 16.9,-8.5c7.11,0.05 13.45,3.75 19.02,7.83c2.13,-1 4.31,-1.9 6.53,-2.68c-0.04,-3.97 -0.08,-7.94 0.21,-11.9c-17.69,-0.23 -35.39,-0.03 -53.08,-0.08c0.27,17.51 -0.29,35.03 0.12,52.53c-3.98,0.26 -7.98,0.15 -11.96,0.1c0.01,-4.92 0.14,-9.85 0.28,-14.77c-8.21,2.16 -17.99,4.2 -25.39,-1.27c-5.89,-3.79 -6.61,-11.38 -7.57,-17.68c7.71,0.16 13.16,-10.7 7.57,-16.31c-3.99,-4.5 -10.5,-2 -15.7,-2.92c-0.1,17.6 -0.07,35.22 0.07,52.83c-3.92,-0.09 -7.84,-0.07 -11.75,-0.33c0.42,-17.4 -0.06,-34.81 0.24,-52.22c-3.04,-0.01 -6.08,-0.04 -9.12,-0.09c0.33,17.51 -0.12,35.03 0.24,52.55c-4.22,0.34 -8.46,0.22 -12.69,0.14c0.2,-9.63 0.31,-19.27 0.06,-28.9c-3.08,0.18 -6.16,0.25 -9.24,0.21c0.02,-3.81 0.02,-7.61 0.2,-11.41c3.08,0.01 6.16,0.01 9.25,-0.02c-0.07,-4.17 -0.17,-8.33 -0.02,-12.5c-2.7,0.05 -5.39,0.12 -8.08,0.13c0.07,-2.85 0.11,-5.7 0.02,-8.54m68.73,8.36c1.37,4.6 1.09,9.51 0.78,14.24c-0.7,4.62 -3.94,8 -7.72,10.4c2.85,7.25 15.5,7.66 18.31,0.12c3.09,-7.87 1.37,-16.5 1.79,-24.73c-4.39,0.05 -8.77,0.04 -13.16,-0.03z" id="path15"/>
   </g>
   <g id="#02164fff">
    <path fill="#02164f" d="m518.660182,393.41743c7.48,-0.56 15.02,-0.46 22.51,-1.11c9.01,0.82 18.11,0.31 27.06,1.8c34.73,3.81 68.65,14.9 98.72,32.68c15.73,9.07 30.2,20.25 43.73,32.32c5.7,5.99 12.09,11.34 17.19,17.87c12.82,13.89 23.3,29.81 32.61,46.22c2.42,5.29 5.61,10.19 7.54,15.71c6.54,12.96 10.45,26.99 14.58,40.84c3.12,13.47 5.36,27.14 6.76,40.89c0.56,13.17 0.5,26.35 0,39.52c-1.55,14.28 -3.73,28.53 -7.24,42.48c-2.55,6.96 -3.88,14.31 -6.71,21.17c-13.53,37.7 -36.54,71.92 -66.23,98.81c-6.06,5.65 -12.54,10.82 -18.98,16.03c-7.38,4.61 -14.05,10.37 -21.9,14.22c-14.01,8.76 -29.24,15.38 -44.68,21.16c-6.6,1.95 -13.11,4.17 -19.71,6.11c-15.09,3.27 -30.27,6.67 -45.76,7.02c-9.61,1.15 -19.33,1 -28.98,0.55c-5.4,-0.91 -10.94,-0.26 -16.31,-1.37c-3.47,-0.61 -7.03,-0.38 -10.47,-1.19c-10.72,-2.42 -21.73,-3.77 -32.16,-7.34c-11.53,-3.83 -23.26,-7.38 -34.04,-13.08c-9.28,-3.64 -17.64,-9.14 -26.39,-13.82c-14.27,-9.44 -28.28,-19.41 -40.48,-31.47c-29.12,-27.38 -51.52,-61.91 -64.21,-99.82c-1.39,-3.45 -2.64,-6.96 -3.36,-10.62c-7.57,-25.66 -10.81,-52.61 -9.63,-79.34c0.21,-13.04 2.65,-25.91 4.67,-38.75c5.46,-24.75 13.99,-48.93 26.61,-70.97c2.59,-5.57 6.55,-10.31 9.4,-15.73c14.59,-20.96 31.3,-40.75 51.7,-56.27c9.19,-7.72 19.18,-14.39 29.4,-20.63c4.76,-2.07 8.75,-5.54 13.63,-7.32c15.67,-7.99 32.1,-14.64 49.19,-18.91c13.68,-3.99 27.86,-5.73 41.94,-7.66m8.94,9.79c-16,1.05 -31.87,3.66 -47.45,7.5c-12.7,3.8 -25.4,7.79 -37.43,13.41c-54.9,24.59 -99.83,70.73 -122.58,126.45c-7.71,17.62 -12.09,36.46 -15.46,55.33c-3.73,27.6 -3.43,55.97 2.84,83.19c13.51,66.67 58.1,125.85 117.59,158.53c54.13,30.47 120.47,38.12 180.19,21.15c55.32,-15.12 104.3,-51.4 135.7,-99.3c19.39,-29.51 32.13,-63.42 36.57,-98.46c6.73,-50.39 -3.38,-102.94 -28.75,-147.04c-20.14,-35.75 -49.87,-65.9 -85.02,-87.01c-27.09,-16.17 -57.4,-27.11 -88.67,-31.49c-15.69,-2.62 -31.65,-2.67 -47.53,-2.26z" id="path18"/>
    <path fill="#02164f" d="m517.680182,413.52743c50.06,-5.38 101.9,6.27 144.63,32.97c43.37,26.64 77.52,68.14 94.94,116c7.28,18.93 11.19,39 13.23,59.13c-0.18,7.7 1.37,15.33 0.85,23.01c-0.7,5.94 -0.75,11.91 -0.82,17.88c-0.74,10.12 -2.15,20.21 -4.46,30.1c-1.61,6.62 -4.29,12.91 -6.35,19.39c-18.86,57.51 -61.64,106.58 -115.95,133.26c-22.99,11.57 -48.01,18.96 -73.52,22.17c-4.97,0.94 -10.08,0.49 -15.05,1.53c-37,1.98 -74.49,-4.92 -108.27,-20.22c-24.63,-11.44 -47.59,-26.8 -66.69,-46.17c-35.64,-34.75 -59.09,-81.62 -65.85,-130.9c-2.57,-19.89 -2.86,-40.14 -0.14,-60.02c0.74,-10.48 3.69,-20.6 6.09,-30.78c14.77,-54.44 50.6,-102.83 98.39,-132.79c15.08,-9.72 31.34,-17.61 48.36,-23.33c7.78,-3.19 16.04,-4.79 24.15,-6.86c8.69,-2.16 17.59,-3.26 26.46,-4.37m-24.45,9.36c-33.14,7.45 -64.62,22.34 -91.1,43.66c-29,22.99 -52.21,53.29 -66.7,87.36c-3.59,7.91 -6,16.28 -9.14,24.37c110.63,-0.02 221.26,-0.14 331.87,-0.79c32.72,-0.02 65.44,-0.18 98.17,-0.11c-10.51,-36.79 -31.51,-70.37 -58.98,-96.91c-28.08,-26.96 -63.17,-46.67 -100.99,-56.07c-33.63,-8.52 -69.24,-8.77 -103.13,-1.51m-131.54,170.35c-3.1,1.64 -6.57,5.54 -4.24,9.13c1.89,4.69 8.93,5.57 11.88,1.46c4.69,-4.68 -1.87,-12.91 -7.64,-10.59m30.79,3.75c-6.01,2.82 -10.92,8.26 -12.62,14.73c-16.45,0.34 -32.92,0.06 -49.38,0.21c0.03,2.82 0.04,5.65 0.03,8.48c8.18,-0.16 16.37,-0.07 24.55,-0.06c0.81,1.47 0.37,3.27 0.58,4.88c-7.94,0.11 -17.06,-0.34 -23.17,5.67c-3.07,2.24 -2.67,6.41 -2.59,9.77c0.23,4.64 3.64,9.02 8.29,9.87c7.28,1.92 16.15,0.08 21.9,6.02c-1.43,4.12 -5.12,7.94 -9.8,7.29c-3.24,-1.33 -4.96,-4.87 -8.36,-5.93c-3.3,-1.16 -7.68,-1.6 -10.33,1.14c-3.02,2.34 -2.45,6.65 -1.74,9.94c2.07,4.6 7.24,7.14 12.1,7.47c2.51,5.4 6.55,9.95 11.35,13.43c2.41,-2.51 4.4,-5.36 6.74,-7.93c-1.75,-1.48 -4.1,-2.85 -4.45,-5.32c2.53,-4.37 8.92,-2.84 12.09,-6.52c2.33,-3 4.77,-6.44 4.58,-10.43c0.06,-5.46 -0.67,-12.25 -6.05,-15.12c-7.05,-3.76 -15.33,-1.16 -22.89,-2c-2.61,-0.4 -1.78,-3.5 -1.62,-5.33c9.05,-1.68 18.4,-1.16 27.57,-1.11c0.55,-5.28 0.18,-10.6 0.22,-15.9c3.29,0.44 6.95,-0.64 10,0.55c0.08,17.5 -0.12,35.01 0.3,52.5c3.76,-0.18 7.53,-0.14 11.3,-0.23c-0.12,-17.56 0.13,-35.13 -0.04,-52.7c9.98,0.06 19.97,-0.06 29.96,0.07c-0.05,1.91 -0.08,3.84 -0.12,5.76c-5.13,0.04 -10.62,-0.8 -15.34,1.72c-3.94,1.66 -7.11,5.29 -7.18,9.71c-1.71,4.62 1.77,8.99 5.49,11.35c7.14,4.46 15.96,3.86 23.74,6.28c0,1.87 1.03,4.65 -1.34,5.51c-6.8,4.14 -14.93,1.34 -21.73,-1.29c-1.95,2.4 -4.11,4.63 -5.99,7.08c8.88,6.3 20.95,9.31 31.25,4.82c7.24,-2.96 11.73,-11.03 10.85,-18.72c-0.79,-2.16 -2.79,-3.61 -4.75,-4.64c-7.88,-4.26 -17.18,-3.41 -25.66,-5.59c-0.17,-1.26 -0.34,-2.52 -0.48,-3.78c2.79,-1.95 6.26,-1.27 9.45,-1.42c5.27,-0.02 10.54,-0.36 15.81,-0.11c0.58,-5.58 0.28,-11.2 -0.01,-16.78c4.42,0.57 10.02,-1.68 13.39,2.16c2.12,2.07 3.76,5.06 3,8.1c-0.93,5.36 -6.22,8.44 -10.99,9.91c1.68,7.95 6.7,15.12 13.75,19.2c6.26,3.44 14.07,2.66 20.28,-0.51c-0.1,4.67 -0.19,9.34 -0.1,14.01c4.23,-0.13 8.45,-0.15 12.68,0.01c-0.39,-17.55 0.52,-35.07 0.56,-52.6c12.81,-0.25 25.63,-0.07 38.44,-0.2c-0.28,4.69 -0.43,9.4 -0.36,14.1c-8.13,1.1 -16.36,0.32 -24.52,0.47c-4.42,0.02 -9.24,3.88 -8.45,8.66c-0.09,5.5 5.67,11.31 11.27,8.87c3.79,-1.12 5.7,-4.68 8.2,-7.39c4.19,-0.1 8.39,0.05 12.59,0.01c-0.11,9.2 -0.06,18.41 -0.34,27.62c4.18,0.09 8.36,0.15 12.54,-0.06c0.08,-17.41 0.76,-34.8 0.48,-52.22c1.77,-0.09 3.54,-0.16 5.31,-0.26c-0.1,-2.72 -0.1,-5.45 -0.02,-8.17c-36.4,-0.1 -72.82,0.11 -109.22,-0.25c-1.53,-6.65 -6.93,-11.84 -13.04,-14.5c-8.61,-4.27 -19.31,-4.67 -27.96,-0.3m227.94,-1.87c-3.14,3.23 -7.58,5.68 -12.21,4.75c-2.92,-0.26 -5.12,-2.31 -7.42,-3.89c-2.43,0.01 -4.74,1.54 -6.82,2.72c2.88,7.84 12.36,12.68 20.34,9.93c5.22,-1.54 10.37,-4.58 12.98,-9.54c-2.38,-1.17 -4.69,-2.46 -6.87,-3.97m-64.28,16.66c-5.25,1.35 -9.34,6.01 -9.78,11.45c1.96,1.44 3.77,3.17 5.97,4.25c3.88,-0.13 5.59,-5.7 9.85,-4.75c3.08,-0.49 6.33,1.66 6.59,4.87c-1.28,5.2 -6.08,10.45 -11.91,9.33c-0.09,2.28 -0.2,4.56 -0.3,6.85c3.98,0.6 10.16,-1.64 12.02,3.29c0.12,3.95 1.25,8.79 -2.07,11.81c-2.32,2.92 -6.7,2.9 -9.69,1.08c-3.52,-1.73 -5.07,-5.57 -6.36,-9.02c-2.52,1.59 -5.02,3.2 -7.53,4.79c0.73,2.78 1.22,5.78 3.02,8.11c7.95,10.64 26.55,11.03 34.22,-0.17c3.5,-3.85 2.45,-9.22 1.61,-13.85c-0.45,-3.18 -3.25,-5.15 -5.39,-7.24c4.26,-3.68 4.89,-9.7 5.3,-14.97c-0.56,-12.02 -14.73,-19.78 -25.55,-15.83m28.24,0.08c0.09,2.84 0.05,5.69 -0.02,8.54c2.69,-0.01 5.38,-0.08 8.08,-0.13c-0.15,4.17 -0.05,8.33 0.02,12.5c-3.09,0.03 -6.17,0.03 -9.25,0.02c-0.18,3.8 -0.18,7.6 -0.2,11.41c3.08,0.04 6.16,-0.03 9.24,-0.21c0.25,9.63 0.14,19.27 -0.06,28.9c4.23,0.08 8.47,0.2 12.69,-0.14c-0.36,-17.52 0.09,-35.04 -0.24,-52.55c3.04,0.05 6.08,0.08 9.12,0.09c-0.3,17.41 0.18,34.82 -0.24,52.22c3.91,0.26 7.83,0.24 11.75,0.33c-0.14,-17.61 -0.17,-35.23 -0.07,-52.83c5.2,0.92 11.71,-1.58 15.7,2.92c5.59,5.61 0.14,16.47 -7.57,16.31c0.96,6.3 1.68,13.89 7.57,17.68c7.4,5.47 17.18,3.43 25.39,1.27c-0.14,4.92 -0.27,9.85 -0.28,14.77c3.98,0.05 7.98,0.16 11.96,-0.1c-0.41,-17.5 0.15,-35.02 -0.12,-52.53c17.69,0.05 35.39,-0.15 53.08,0.08c-0.29,3.96 -0.25,7.93 -0.21,11.9c-2.22,0.78 -4.4,1.68 -6.53,2.68c-5.57,-4.08 -11.91,-7.78 -19.02,-7.83c-6.61,-0.5 -13.6,2.6 -16.9,8.5c-3.61,5.03 -3.77,11.6 -2.64,17.46c2.48,8.44 8.81,15.29 16.26,19.73c1.64,-3.06 3.27,-6.12 4.75,-9.26c-3.85,-4.06 -9.63,-7.71 -9.65,-13.95c-0.57,-4.61 3.14,-8.73 7.34,-10.02c2.71,-0.78 5.49,0.85 7.02,3.03c-1.59,1.91 -4.11,2.73 -6.17,4.02c1.68,3.13 3.06,6.4 4.86,9.46c5.62,-3.57 11.99,-5.68 17.81,-8.88c1.09,-0.6 2.25,-1.03 3.47,-1.3c0.07,8.9 0.68,17.8 0.44,26.7c4.05,0.52 8.15,0.32 12.23,0.22c-0.21,-17.54 0.05,-35.07 -0.12,-52.61c3.29,0.02 6.58,0.11 9.88,0.06c-0.09,-2.81 -0.09,-5.63 0.03,-8.44c-56.46,-0.13 -112.93,-0.1 -169.4,-0.02m-257.75,91.06c12.95,44.87 40.77,85.05 77.6,113.67c19.22,15.08 41.07,26.69 64.05,34.89c10.83,3.71 21.98,6.32 33.17,8.72c10.11,2.02 20.42,2.56 30.67,3.44c9.12,-0.02 18.29,0.45 27.37,-0.68c19.23,-1.04 38.14,-5.58 56.34,-11.75c33.08,-11.56 63.28,-31.09 87.6,-56.3c24.08,-25.07 42.28,-55.79 52.59,-89c-14.28,-0.17 -28.56,0.02 -42.84,-0.14c-7.33,-0.43 -14.67,-0.29 -22.01,-0.34c-35.67,0 -71.33,-0.36 -107,-0.52c-18.34,0.24 -36.66,-0.47 -54.99,-0.62c-38.67,-0.69 -77.34,-0.32 -116.01,-0.79c-28.85,-0.24 -57.7,-0.13 -86.54,-0.58z" id="path20"/>
    <path fill="#02164f" d="m391.880182,612.02743c1.25,-7.02 8.92,-10 15.32,-9.37c5.91,-0.31 12.47,3.02 13.66,9.25c-9.66,0.01 -19.32,0.36 -28.98,0.12z" id="path22"/>
    <path fill="#02164f" d="m462.110182,620.48743c4.06,-0.02 8.11,-0.04 12.17,-0.06c-0.15,7.61 0.78,15.41 -1.49,22.81c-1.6,4.7 -6.56,8.34 -11.6,7.61c-3.01,0.02 -4.83,-2.77 -6.34,-4.98c2.54,-2.61 5.82,-4.78 7.19,-8.31c2.36,-5.41 1.25,-11.51 0.07,-17.07z" id="path24"/>
    <path fill="#02164f" d="m653.110182,620.21743c4.39,0.07 8.77,0.08 13.16,0.03c-0.42,8.23 1.3,16.86 -1.79,24.73c-2.81,7.54 -15.46,7.13 -18.31,-0.12c3.78,-2.4 7.02,-5.78 7.72,-10.4c0.31,-4.73 0.59,-9.64 -0.78,-14.24z" id="path26"/>
    <path fill="#02164f" d="m679.620182,902.41743c9.71,-1.28 20.1,-0.85 28.9,3.89c9.19,4.73 15.81,13.74 18.21,23.73c2.41,10.02 2.36,20.71 -0.41,30.66c-2.88,10.39 -10.58,19.39 -20.61,23.45c-7.4,3.16 -15.64,3.41 -23.55,2.77c-11.04,-1.05 -21.72,-7.11 -27.46,-16.74c-6.9,-11.27 -7.36,-25.29 -5.13,-37.99c2.6,-14.84 14.82,-27.89 30.05,-29.77m1.94,14.8c-7.15,1.98 -12.63,8.18 -14.41,15.3c-2.11,8.35 -2.15,17.4 0.64,25.6c2.81,8.08 10.61,14.48 19.34,14.53c7.4,0.68 14.99,-2.8 19.17,-8.96c4.16,-6.14 5.01,-13.87 4.86,-21.11c-0.27,-7.1 -1.64,-14.83 -6.9,-20.03c-5.66,-6.13 -14.93,-7.4 -22.7,-5.33z" id="path28"/>
    <path fill="#02164f" d="m316.940182,903.41743c5.49,-0.06 10.97,-0.05 16.46,0c0.05,27.4 0,54.81 0.03,82.21c-5.51,0.03 -11.01,0.02 -16.51,0.01c0.02,-27.41 -0.03,-54.81 0.02,-82.22z" id="path30"/>
    <path fill="#02164f" d="m456.930182,903.40743c5.33,0 10.67,-0.11 16,0.07c0.01,27.37 -0.03,54.74 0.02,82.1c-4.92,0.1 -9.84,0.08 -14.76,0.07c-0.03,-2.68 -0.04,-5.36 -0.07,-8.03c-4.56,5.67 -11.45,9.92 -18.93,9.57c-8.69,0.27 -16.68,-5.39 -20.73,-12.84c-4.21,-7.67 -4.57,-16.78 -3.71,-25.3c0.76,-7.27 3.82,-14.58 9.69,-19.17c5.56,-4.72 13.34,-5.88 20.34,-4.59c4.77,0.98 8.66,4.1 12.2,7.27c-0.12,-9.72 -0.05,-19.44 -0.05,-29.15m-17.43,34.48c-3.85,1.63 -6.75,5.25 -7.72,9.3c-1.26,5.03 -1.04,10.33 -0.28,15.43c0.69,4.55 3.41,8.98 7.7,10.92c4.17,1.67 9.43,1.15 12.67,-2.18c4.63,-4.19 5.46,-10.88 5.27,-16.78c-0.26,-4.98 -1.01,-10.5 -4.75,-14.15c-3.24,-3.41 -8.59,-4.15 -12.89,-2.54z" id="path32"/>
    <path fill="#02164f" d="m487.510182,903.37743c5.3,0.01 10.6,0 15.89,0.02c0.03,4.83 0.03,9.65 0,14.48c-5.29,0.02 -10.59,0 -15.88,0.02c-0.17,-4.84 -0.17,-9.69 -0.01,-14.52z" id="path34"/>
    <path fill="#02164f" d="m740.200182,903.42743c5.31,-0.06 10.63,-0.06 15.95,0c0.05,4.8 0.05,9.61 -0.01,14.42c-5.31,0.05 -10.63,0.05 -15.95,0c-0.05,-4.81 -0.05,-9.62 0.01,-14.42z" id="path36"/>
    <path fill="#02164f" d="m771.410182,903.48743c5.33,-0.18 10.66,-0.11 15.99,-0.07c0.04,27.41 0.03,54.81 0.01,82.21c-5.34,0.01 -10.68,0.06 -16.01,-0.05c0.05,-27.36 0.02,-54.73 0.01,-82.09z" id="path38"/>
    <path fill="#02164f" d="m376.050182,925.57743c7.35,-1.7 15.97,-0.84 21.68,4.52c4.63,4.58 5.02,11.45 5.17,17.59c0.06,12.63 -0.04,25.26 0.04,37.9c-5.34,0.1 -10.68,0.06 -16.03,0.04c-0.28,-13.64 0.68,-27.35 -0.65,-40.94c-0.75,-7.46 -10.35,-9.69 -15.83,-5.74c-4.87,2.65 -5.78,8.59 -5.95,13.62c-0.16,11.01 0.02,22.03 -0.09,33.05c-5.33,0.04 -10.67,0.06 -16,-0.02c0.07,-19.9 -0.02,-39.8 0.04,-59.7c4.97,-0.03 9.94,0 14.9,-0.03c0.09,2.62 0.09,5.25 0.1,7.88c3.65,-3.45 7.56,-7.01 12.62,-8.17z" id="path40"/>
    <path fill="#02164f" d="m527.100182,927.52743c7.12,-3.29 15.2,-2.86 22.83,-2.4c6.6,0.55 14.09,3.59 16.45,10.3c4.08,16.45 -2.74,34.35 4.53,50.2c-5.41,-0.03 -10.83,0.18 -16.24,-0.15c-0.51,-1.92 -1.08,-3.82 -1.65,-5.71c-4.26,3.55 -9.18,6.74 -14.85,7.26c-5.99,0.56 -12.59,-0.01 -17.36,-4.04c-7.31,-5.79 -8.26,-17.86 -2.05,-24.76c3.76,-4.24 9.51,-5.78 14.84,-6.98c6.1,-1.23 12.22,-2.41 18.2,-4.19c0.27,-2.97 0.22,-6.62 -2.57,-8.43c-3.28,-1.95 -7.37,-1.62 -11.03,-1.34c-3.84,0.43 -5.92,4.05 -7.42,7.19c-4.84,-0.73 -9.64,-1.69 -14.48,-2.46c1.73,-5.88 5.09,-11.72 10.8,-14.49m8.1,34.22c-4.02,1.42 -5.88,6.67 -3.32,10.2c3.42,5.72 11.94,4.76 16.33,0.71c4.66,-3.54 3.55,-10 3.74,-15.11c-5.58,1.39 -11.33,2.24 -16.75,4.2z" id="path42"/>
    <path fill="#02164f" d="m609.270182,925.66743c7.52,-1.89 16.45,-0.98 22.23,4.64c4.38,4.59 4.84,11.33 4.92,17.35c-0.01,12.65 0.03,25.31 -0.03,37.96c-5.33,0.04 -10.67,0.06 -16,-0.02c-0.28,-13.75 0.74,-27.57 -0.67,-41.26c-1.03,-7.7 -11.39,-9.35 -16.61,-4.78c-4.53,3.13 -4.93,9.11 -5.14,14.12c-0.12,10.63 -0.01,21.27 -0.04,31.91c-5.33,0.12 -10.67,0.05 -16,0.04c0.04,-19.92 -0.14,-39.84 0.09,-59.76c4.96,0.02 9.92,0 14.88,0.02c0.01,2.54 0.01,5.09 0.12,7.64c3.64,-3.23 7.4,-6.62 12.25,-7.86z" id="path44"/>
    <path fill="#02164f" d="m487.430182,925.88743c5.29,-0.02 10.59,0 15.89,-0.02c0.22,19.92 0.06,39.84 0.08,59.76c-5.34,0.04 -10.68,0.05 -16.01,-0.05c0.06,-19.89 -0.01,-39.79 0.04,-59.69z" id="path46"/>
    <path fill="#02164f" d="m740.220182,925.84743c5.3,0.05 10.6,0.06 15.9,-0.01c0.13,19.93 0.05,39.86 0.04,59.79c-5.33,0.03 -10.65,0.03 -15.98,0c-0.02,-19.93 -0.08,-39.86 0.04,-59.78z" id="path48"/>
   </g>
   <g id="#f37022ff">
    <path fill="#f37022" d="m493.230182,422.88743c33.89,-7.26 69.5,-7.01 103.13,1.51c37.82,9.4 72.91,29.11 100.99,56.07c27.47,26.54 48.47,60.12 58.98,96.91c-32.73,-0.07 -65.45,0.09 -98.17,0.11c-110.61,0.65 -221.24,0.77 -331.87,0.79c3.14,-8.09 5.55,-16.46 9.14,-24.37c14.49,-34.07 37.7,-64.37 66.7,-87.36c26.48,-21.32 57.96,-36.21 91.1,-43.66z" id="path51"/>
    <path fill="#f37022" d="m326.630182,702.91743c28.84,0.45 57.69,0.34 86.54,0.58c38.67,0.47 77.34,0.1 116.01,0.79c18.33,0.15 36.65,0.86 54.99,0.62c35.67,0.16 71.33,0.52 107,0.52c7.34,0.05 14.68,-0.09 22.01,0.34c14.28,0.16 28.56,-0.03 42.84,0.14c-10.31,33.21 -28.51,63.93 -52.59,89c-24.32,25.21 -54.52,44.74 -87.6,56.3c-18.2,6.17 -37.11,10.71 -56.34,11.75c-9.08,1.13 -18.25,0.66 -27.37,0.68c-10.25,-0.88 -20.56,-1.42 -30.67,-3.44c-11.19,-2.4 -22.34,-5.01 -33.17,-8.72c-22.98,-8.2 -44.83,-19.81 -64.05,-34.89c-36.83,-28.62 -64.65,-68.8 -77.6,-113.67z" id="path53"/>
   </g>
  </g>
 </g>
</svg>