
<svg width="500" height="500" xmlns="http://www.w3.org/2000/svg">

 <g>
  <title>background</title>
  <rect fill="none" id="canvas_background" height="502" width="502" y="-1" x="-1"/>
 </g>
 <g>
  <title>Layer 1</title>
  <g id="layer1">
   <g transform="matrix(7.9521124,0,0,7.9521124,-4070.4555,-6207.6808) " id="g4217">
    <path fill="#d9261c" fill-rule="evenodd" d="m521.081326,827.280231l-1.2818,-1.393l0.0136,1.2668l-0.8578,0.0094l-0.0422,-3.93l0.8578,-0.0093l0.015,1.3966l1.2407,-1.5197l0.6143,0.5321l-1.3799,1.571l1.4524,1.4907l-0.6321,0.5854z" id="path2833"/>
    <path fill="#d9261c" fill-rule="evenodd" d="m525.759626,827.240231l-0.9513,-2.1946l-0.894,2.2141l-1.6773,-3.8525l0.7741,-0.3773l0.9227,2.3343l0.8626,-2.3635l0.9527,2.3442l0.8728,-2.3538l0.7319,0.3515l-1.5942,3.8976z" id="path2835"/>
    <path fill="#d9261c" fill-rule="evenodd" d="m529.713126,825.671531l-0.9975,0.0108l0.487,-1.0928l0.5105,1.082zm1.4785,1.1214l-1.9961,-3.8194l-1.9239,3.8613l0.762,0.3711l0.331,-0.7518l1.7258,-0.0187l0.3469,0.7348l0.7543,-0.3773z" id="path2837"/>
    <path fill="#d9261c" fill-rule="evenodd" d="m531.992126,827.023631l-0.0422,-3.9299l0.8478,-0.0091l0.0332,3.1022l1.2969,-0.0139l0.0088,0.8278l-2.1445,0.0229z" id="path2839"/>
    <path fill="#d9261c" fill-rule="evenodd" d="m535.144026,826.989931l-0.042,-3.93l0.8578,-0.009l0.0419,3.9299l-0.8577,0.0091z" id="path2841"/>
    <path fill="#d9261c" fill-rule="evenodd" d="m538.881226,823.847731l0.0331,3.1019l-0.8478,0.0091l-0.0332,-3.1019l-1.1571,0.0121l-0.0088,-0.8277l3.1519,-0.0337l0.0091,0.8277l-1.1472,0.0125z" id="path2843"/>
    <path fill="#d9261c" fill-rule="evenodd" d="m542.735726,825.153031l0.019,1.7555l-0.8478,0.0091l-0.0187,-1.7456l-1.4256,-1.7702l0.6625,-0.5559l1.1937,1.5633l1.1701,-1.5885l0.6344,0.5417l-1.3876,1.7906z" id="path2845"/>
    <path fill="#d9261c" fill-rule="evenodd" d="m550.237126,826.978031l-0.9511,-2.1943l-0.894,2.2141l-1.6773,-3.8525l0.7739,-0.3776l0.9229,2.3346l0.8626,-2.3635l0.9428,2.3442l0.8825,-2.3539l0.7321,0.3512l-1.5944,3.8977z" id="path2847"/>
    <path fill="#d9261c" fill-rule="evenodd" d="m554.260626,825.408731l-0.9976,0.0108l0.4972,-1.0928l0.5004,1.082zm1.4785,1.1214l-1.9862,-3.8194l-1.9338,3.8614l0.7721,0.3707l0.3311,-0.7517l1.7255,-0.0184l0.3469,0.7344l0.7444,-0.377z" id="path2849"/>
    <path fill="#d9261c" fill-rule="evenodd" d="m556.549526,826.760931l-0.0419,-3.93l0.8478,-0.0091l0.0332,3.102l1.2965,-0.0139l0.0088,0.828l-2.1444,0.023z" id="path2851"/>
    <path fill="#d9261c" fill-rule="evenodd" d="m559.611826,826.728031l-0.0422,-3.93l0.8478,-0.0091l0.0332,3.1023l1.2968,-0.0139l0.0088,0.8277l-2.1444,0.023z" id="path2853"/>
    <path fill="#d9261c" fill-rule="evenodd" d="m562.489026,824.333031l-0.5417,-0.2736l0.6219,-1.5627l0.7322,0.3713l-0.8124,1.465z" id="path2855"/>
    <path fill="#d9261c" fill-rule="evenodd" d="m565.018626,826.720031c-0.5488,0.006 -0.9303,-0.2194 -1.2543,-0.665l0.5924,-0.5748c0.1619,0.1978 0.3634,0.3951 0.6426,0.3923c0.1897,-0.0023 0.3677,-0.1437 0.3657,-0.3433c-0.0023,-0.2095 -0.1432,-0.3175 -0.3234,-0.3756l-0.3904,-0.1256c-0.5105,-0.1641 -0.8736,-0.5292 -0.8796,-1.0876c-0.007,-0.6684 0.4856,-1.2424 1.1739,-1.2498c0.5485,-0.0057 0.9005,0.2497 1.224,0.6653l-0.6018,0.6049c-0.142,-0.1979 -0.3439,-0.4153 -0.6032,-0.4125c-0.1993,0.0023 -0.3476,0.1534 -0.3453,0.353c0.0023,0.1995 0.1825,0.2874 0.3529,0.3452l0.4005,0.1355c0.5006,0.1741 0.8139,0.5599 0.8195,1.0885l0.0003,0.0099c0.0071,0.6685 -0.4958,1.2325 -1.1738,1.2396" id="path2857"/>
    <path fill="#d9261c" fill-rule="evenodd" d="m543.101426,814.162031c-1.1237,0.0252 -11.3221,-2.9092 -11.4724,-8.2242c-0.045,-2.0146 1.6404,-4.2928 5.0964,-4.3704c2.3324,-0.0522 4.5615,1.1769 5.8986,2.713c0.1432,0.1596 0.3603,0.1704 0.5035,-0.0113c1.351,-1.6427 3.4466,-2.9223 5.7713,-2.9744c3.4637,-0.0777 5.2418,2.1228 5.2869,4.1377c0.0882,5.3161 -9.4649,8.6933 -11.0843,8.7296zm7.4157,-7.7638c-0.0312,-1.387 -1.4386,-2.619 -3.1822,-2.5798c-1.9604,0.0439 -3.3145,1.5395 -4.0745,2.9131c-0.1715,0.3138 -0.4972,0.2979 -0.6587,0.0148c-0.7663,-1.3241 -2.2406,-2.7717 -4.201,-2.7278c-1.7436,0.0391 -2.7612,1.3255 -2.7303,2.7125c0.1599,3.6635 6.0409,6.2915 7.4123,6.2608c1.4956,-0.0334 7.4441,-3.0509 7.4344,-6.5936" id="path2859"/>
    <path fill="#d9261c" fill-rule="evenodd" d="m548.939126,815.892031c-0.4635,0.0723 -0.6066,-0.4283 -0.2455,-0.576c1.7592,-0.7141 9.8229,-3.7866 9.6735,-10.4502c-0.0709,-3.1615 -3.0818,-6.0633 -8.1496,-5.9497c-3.8665,0.0865 -6.5327,2.1929 -7.0591,2.5691c-0.275,0.1924 -0.4536,0.1732 -0.6908,-0.0309c-1.4227,-1.2084 -4.2965,-2.4854 -7.5974,-2.4115c-4.0295,0.0905 -7.6683,2.3814 -7.5181,6.3165c0.1536,4.0821 4.407,6.7235 7.5892,8.2723c2.1478,1.0452 7.7355,2.6952 7.9075,2.7533c0.586,0.2041 0.3742,0.7824 -0.2707,0.7271c-0.4813,-0.0357 -5.1389,-0.3036 -10.3464,-2.6209c-1.66,-0.7382 -8.2256,-4.1573 -8.3639,-10.3252c-0.0754,-3.363 2.3879,-7.5969 9.5479,-7.7573c3.975,-0.089 7.4126,1.4309 8.981,2.5818c0.2838,0.203 0.4382,0.1763 0.6443,0.0323c1.0151,-0.7129 3.7693,-2.6972 8.0467,-2.793l0,0c5.1529,-0.1156 10.7195,2.6669 10.8468,8.339c0.1738,7.7564 -11.8366,11.1421 -12.9954,11.3233" id="path2861"/>
    <path fill="#d9261c" fill-rule="evenodd" d="m566.320626,821.129831l1.203,-0.0127l0.0025,0.2259l-0.4725,0.0048l0.0142,1.3136l-0.2552,0.0028l-0.0141,-1.3136l-0.4754,0.0051l-0.0025,-0.2259zm1.3878,-0.0147l0.3722,-0.004l0.3829,1.2271l0.3623,-1.235l0.3719,-0.004l0.0165,1.5392l-0.2435,0.0026l-0.0136,-1.2716l-0.368,1.2758l-0.2506,0.0026l-0.39,-1.2677l0.0136,1.2719l-0.2373,0.0026l-0.0164,-1.5395z" id="path2863"/>
   </g>
  </g>
 </g>
</svg>