
<svg width="500" height="500" xmlns="http://www.w3.org/2000/svg">
 <g>
  <title>background</title>
  <rect x="-1" y="-1" width="502" height="502" id="canvas_background" fill="none"/>
 </g>

 <g>
  <title>Layer 1</title>
  <g id="layer1">
   <g id="g2604" transform="matrix(7.334279662556773,0,0,6.905525301358611,-2839.846069464053,-3127.1707448459942) ">
    <g transform="matrix(1,0,0,-1,443.63204,502.03719) " id="g3470">
     <path d="m-20.617566,7.778651c-0.347,0.44 -0.662,0.825 -1.029,1.252c-1.1,1.367 -3.149,3.909 -3.149,3.909c0,0 2.415,2.41 3.105,3.098c0.416,0.416 0.814,0.564 0.791,0.665c-0.144,0.132 -0.394,0.069 -0.668,0.026c-0.618,-0.091 -1.411,-0.804 -1.704,-1.065c0.01,0.008 -3.28,-3.284 -3.452,-3.446c-0.258,-0.241 -0.244,0.096 -0.244,0.096l0,4.482l-0.039,-0.024c0,0.009 0.006,0.009 0.006,0.009l-1.412,0c0,0 0.011,-8.994 -0.001,-9.007c-0.055,-0.425 -0.009,-0.361 -0.161,-0.939c1.453,0 0.441,0.011 1.081,0.02c0.013,0.002 0.03,0.014 0.046,0.029c0.274,0.047 0.441,0.204 0.477,0.667l0,2.924c-0.015,0.132 0.031,0.341 0.242,0.562c0.352,0.369 0.989,0.959 0.989,0.959c0,0 3.018,-3.731 3.007,-3.731c1.02,-1.205 0.944,-1.612 2.628,-1.243c0.317,0.188 -0.152,0.291 -0.513,0.757" id="path3472" fill-rule="nonzero" fill="#a53f7d"/>
    </g>
    <g transform="matrix(1,0,0,-1,415.89804,501.67419) " id="g3474">
     <path d="m-20.617566,7.778651c-0.099,0 -0.918,-0.096 -1.108,-0.08c0.022,0.002 -4.088,-0.036 -4.088,-0.019c-0.004,0 -0.004,8.757 -0.004,8.757l-1.517,0c0,0 0.007,-8.467 -0.062,-9.008c-0.054,-0.428 -0.009,-0.362 -0.162,-0.937c1.453,0 5.499,-0.01 6.137,0c0.178,0.029 1.209,1.086 0.804,1.287" id="path3476" fill-rule="nonzero" fill="#a53f7d"/>
    </g>
    <g transform="matrix(1,0,0,-1,429.82604,502.06519) " id="g3478">
     <path d="m-20.617566,7.778651c-0.02,0.028 -0.035,0.054 -0.055,0.08c-0.552,1.023 -3.691,7.659 -3.786,7.837c-0.75,1.416 -1.062,1.513 -1.739,0.035c-0.132,-0.33 -3.577,-8.255 -4.059,-8.863c0.015,0 0.701,-0.06 1.003,0.198c0.183,0.162 0.278,0.469 0.372,0.68c0.219,0.52 0.973,2.386 1.181,2.478c0.207,0.086 0.569,0.027 0.822,0.027c0.646,0 2.083,-0.125 2.536,0.176c0.264,0.18 0.529,0.364 0.529,0.364c0,0 0.514,-1.028 0.643,-1.292c0.312,-0.676 0.651,-1.341 0.946,-1.902c0.199,-0.386 0.486,-0.543 0.545,-0.57c0.241,-0.103 1.031,-0.187 1.299,-0.173c0.204,-0.007 0.187,0.019 0.221,0.111c0.027,0.125 -0.264,0.373 -0.458,0.814m-6.703,3.493l1.555,3.606l1.693,-3.577" id="path3480" fill-rule="nonzero" fill="#a53f7d"/>
    </g>
    <g transform="matrix(1,0,0,-1,461.49304,500.99219) " id="g3482">
     <path d="m-20.617566,7.778651l0,7.999c0,0 -0.388,0.011 -0.911,-0.005c-0.335,0 -0.615,-0.107 -0.817,-0.32c-0.446,-0.459 -0.597,-0.851 -0.843,-1.406c-0.541,-1.25 -2.807,-6.42 -2.987,-6.372c-0.192,0.015 -3.835,7.279 -3.835,7.279c-0.103,0.157 -0.228,0.313 -0.39,0.475c-0.209,0.211 -0.516,0.313 -0.861,0.313c-0.007,0 -0.014,-0.006 -0.017,-0.006l-0.979,0c0,0 0.006,-8.47 -0.061,-9.007c-0.054,-0.424 -0.01,-0.361 -0.165,-0.938c1.456,0 0.103,0.01 0.743,0.019c0.015,0.002 0.032,0.014 0.045,0.029c0.272,0.047 0.449,0.202 0.476,0.666c0,0.018 0.006,5.495 0.006,7.37c0,-0.005 0.002,-0.007 0.002,-0.007c0.23,-0.452 3.968,-7.433 4.351,-7.901c0.283,-0.344 0.589,-0.228 0.799,0.041c0.059,0.038 3.84,7.829 3.84,7.829c0,0 0.013,-7.172 0.003,-7.399c-0.006,-0.322 0.286,-0.591 0.586,-0.603c0.277,-0.02 0.886,-0.011 1.158,0.022c0.221,0.05 -0.137,0.335 -0.143,1.922" id="path3484" fill-rule="nonzero" fill="#a53f7d"/>
    </g>
    <g transform="matrix(1,0,0,-1,474.76304,501.87919) " id="g3486">
     <path d="m-20.617566,7.778651c-0.101,0 -0.925,-0.096 -1.108,-0.083c0.017,0.005 -4.089,-0.032 -4.089,-0.015c-0.005,0 -0.005,1.693 -0.005,3.6c1.187,0 2.974,-0.004 3.312,0.004c0.115,0.014 0.795,0.711 0.527,0.845c-0.066,0 -0.607,-0.061 -0.728,-0.058c0.01,0.004 -2.032,-0.008 -3.111,-0.013l0,3.657l0.033,-0.031c0.432,0.007 2.674,-0.003 3.365,-0.004c0.658,-0.019 0.813,-0.187 0.972,-0.15c0.279,0.136 0.725,0.62 0.769,0.855c0.002,0.123 -0.226,0.172 -0.275,0.164c-0.151,0.061 -6.383,0.046 -6.383,0.046c0,0 0.009,-8.47 -0.063,-9.009c-0.053,-0.429 -0.007,-0.362 -0.158,-0.939c1.452,0 5.498,-0.008 6.135,0c0.174,0.031 1.208,0.932 0.807,1.131" id="path3488" fill-rule="nonzero" fill="#a53f7d"/>
    </g>
    <g transform="matrix(1,0,0,-1,470.12804,491.25919) " id="g3490">
     <path d="m-20.617566,7.778651c-0.403,-0.083 -0.65,0.141 -0.706,-0.057c-0.233,-0.771 -0.702,-1.395 3.695,0.247c2.452,0.932 -1.298,0.068 -2.989,-0.19" id="path3492" fill-rule="nonzero" fill="#a53f7d"/>
    </g>
   </g>
  </g>
  <text xml:space="preserve" text-anchor="start" font-family="'Trebuchet MS', Gadget, sans-serif" font-size="35" id="svg_1" y="412.4375" x="131.5" stroke-width="0" stroke="#000" fill="#000000">Makover Partner</text>
 </g>
</svg>