
<svg xmlns="http://www.w3.org/2000/svg" data-name="Layer 1" width="250" height="250"><rect id="backgroundrect" width="100%" height="100%" x="0" y="0" fill="none" stroke="none" class="" style=""/><defs><style>.cls-1{fill:#203567;}.cls-2{fill:#b92025;}.cls-3{fill:#fff;}</style></defs><title>octave</title><g class="currentLayer" style=""><title>Layer 1</title><g class=""><rect id="_Rectangle_" data-name="&lt;Rectangle&gt;" class="cls-2" y="84.22982788085938" width="250.83958589512673" height="78.49523012285331" x="-1.801801860332489"/><g id="_Group_" data-name="&lt;Group&gt;" class=""><path id="_Compound_Path_" data-name="&lt;Compound Path&gt;" class="cls-3" d="M115.7393773420954,148.66177372163114 V104.23901603218243 H100.77777130483446 V98.29310622385296 h35.98291271369344 v5.945909808329482 h-15.011644853439066 v44.42275768944868 h-6.004657941375626 z"/><g id="_Group_2" data-name="&lt;Group&gt;"><path id="_Compound_Path_2" data-name="&lt;Compound Path&gt;" class="cls-3" d="M7.300258802469397,124.13041456409604 q0,-12.885365269385854 6.229832614177211,-19.804335253066412 a20.23569726243586,20.7108176269461 0 0 1 15.512033015220368,-6.9240913530245125 a20.600980620536212,21.084677589054674 0 0 1 10.94849297977489,3.072821606371825 a21.016302794814692,21.509751244602775 0 0 1 7.836078613495192,8.982881829293634 q2.887239693478114,5.8946961148899515 2.887239693478114,14.032552002431334 Q50.73895512670424,134.72140636739095 45.134607714753656,141.75816784598243 Q38.97983332484364,149.52216377141522 29.0121011421601,149.52216377141522 q-10.042790406950735,0 -16.157533743918247,-7.968850699190933 Q7.300258802469397,134.33730366659447 7.300258802469397,124.13041456409604 zm6.189801561234708,0.08706327884720179 q0,9.320892205994536 4.50349345603172,14.457625657979438 t10.968508506246145,5.121369343953042 a14.191008268117729,14.524203459450826 0 0 0 11.083597783455843,-5.193068514768385 q4.473470166324841,-5.193068514768385 4.473470166324841,-15.266802014324016 A26.87084428765593,27.501753377027832 0 0 0 42.2323563764221,111.7367007517297 a14.321109190180868,14.657359062393606 0 0 0 -5.344145567824307,-6.273677446342476 a14.100938398997096,14.432018811259672 0 0 0 -7.7960475605526875,-2.355829898218399 a14.20601991297117,14.539567567482685 0 0 0 -11.193683179047731,5.157218929360713 Q13.495064245321919,113.42163126589023 13.495064245321919,124.21747784294325 z"/><path id="_Compound_Path_3" data-name="&lt;Compound Path&gt;" class="cls-3" d="M90.55484115964245,131.00329222368103 L96.59452627234276,132.67285862980972 q-2.001552647125209,8.48610900293019 -7.005434264938231,12.66002501825192 t-12.17444397613908,4.173916015321729 q-6.3048908384444085,0 -10.778361004769248,-2.801389031142314 t-7.325682688478264,-8.988003198637587 q-2.8522125221534225,-6.186614167495275 -2.8522125221534225,-14.611266738298028 q0,-8.317103814579738 2.8522125221534225,-14.078644326526911 a20.095588577137093,20.567419285315413 0 0 1 7.725993217903306,-8.70632788472017 a21.04632608452157,21.540479460666496 0 0 1 10.883442518743323,-2.9396660034290463 q6.575100445806311,0 11.298764693021802,3.7181141437099083 t6.6151314987488155,10.918759441307884 l-5.889568664165926,1.5364108031859125 q-3.002328970687813,-10.478321677727925 -12.134412923196578,-10.478321677727925 a14.601326560778398,14.944155745654976 0 0 0 -7.86610190320207,2.1151255390526065 q-3.3275812758456604,2.1151255390526065 -5.31412227811743,6.586080976323612 t-2.001552647125209,11.313104880792269 q0,10.350287444129098 4.0031052942504175,15.522870481521668 t10.648260082706111,5.172583037392572 A12.509704044532555,12.803423359882604 0 0 0 85.7661264513954,140.64170932900066 Q89.3439018081317,137.46133896640583 90.55484115964245,131.00329222368103 z"/><path id="_Compound_Path_4" data-name="&lt;Compound Path&gt;" class="cls-3" d="M133.21793583311626,148.66177372163114 l17.513585662345577,-50.36354612843421 h6.4199801156541065 l18.589420210175376,50.36354612843421 H168.86058459679845 l-5.279095106792738,-15.25655927563611 H144.4866772364312 l-4.933827275163639,15.25655927563611 H133.21793583311626 zm13.010092206313857,-20.680089410882385 h15.461994199042236 l-4.718660365597679,-13.950610092928084 q-2.1866962669842906,-6.422197157317114 -3.2074881170181473,-10.442472092320251 a65.64091906247123,67.18212305397601 0 0 1 -2.501940808906511,9.617931627943813 z"/><path id="_Path_2" data-name="&lt;Path&gt;" class="cls-3" d="M188.84608777834364,148.66177372163114 l-17.61866717631965,-50.36354612843421 h6.5050461031569276 l11.834180026127795,36.58706259320053 q1.3610558000451423,4.260979294168931 2.3818476500789982,8.245404643764397 q1.0608229029763607,-4.158551907289869 2.4168748214036895,-8.245404643764397 l12.284529371730969,-36.58706259320053 h6.114743336967512 l-17.743764216764976,50.36354612843421 H188.84608777834364 z"/><g id="_Group_3" data-name="&lt;Group&gt;"><g id="_Group_4" data-name="&lt;Group&gt;"><path id="_Compound_Path_5" data-name="&lt;Compound Path&gt;" class="cls-3" d="M210.6930349217153,148.66177372163114 V98.29310622385296 H239.93571909621463 v5.9356670696415765 H210.6930349217153 v15.364108031859125 H239.93571909621463 V125.50294154827546 H210.6930349217153 v17.115616347491066 H239.93571909621463 v5.9356670696415765 z"/></g><polygon id="_Path_3" data-name="&lt;Path&gt;" class="cls-2" points="210.69303041696548,104.22877502441406 211.33353334665298,104.22877502441406 211.33353334665298,119.59288024902344 210.05254274606705,119.59288024902344 210.69303041696548,104.22877502441406 "/><rect id="_Rectangle_2" data-name="&lt;Rectangle&gt;" class="cls-2" x="210.0525405179368" y="125.62073085510133" width="1.2759897886819536" height="17.02343255890475"/></g></g></g></g></g></svg>