
<svg width="500" height="500" xmlns="http://www.w3.org/2000/svg">
 <metadata id="metadata8">image/svg+xml</metadata>

 <g>
  <title>background</title>
  <rect x="-1" y="-1" width="502" height="502" id="canvas_background" fill="none"/>
 </g>
 <g>
  <title>Layer 1</title>
  <g transform="matrix(6.902669324220529,0,0,-7.112394800516937,-748.0660484239975,-356.00913108248034) " id="g10">
   <g transform="translate(128.25,-132.75) scale(0.10000000149011612) " id="g12">
    <path id="path14" d="m57.37603,641.12824c-2.422,0.598 -4.16,1.317 -5.184,2.239c-1.015,0.894 -1.531,2.101 -1.531,3.617c0,1.988 0.711,3.555 2.141,4.711c1.433,1.156 3.367,1.746 5.828,1.746c2.152,0 3.945,-0.414 5.383,-1.23c1.449,-0.829 2.175,-1.809 2.175,-2.977c0,-0.602 -0.203,-1.106 -0.617,-1.496c-0.414,-0.383 -0.922,-0.57 -1.535,-0.57c-0.602,0 -1.426,0.375 -2.461,1.191c-0.18,0.144 -0.312,0.246 -0.406,0.328c-0.27,0.211 -0.649,0.383 -1.141,0.531c-0.48,0.16 -0.957,0.231 -1.406,0.231c-0.957,0 -1.668,-0.153 -2.152,-0.453c-0.493,-0.301 -0.735,-0.762 -0.735,-1.364c0,-0.464 0.207,-0.847 0.653,-1.101c0.449,-0.262 1.464,-0.567 3.035,-0.914l1.613,-0.352c2.461,-0.547 4.184,-1.265 5.176,-2.14c1.023,-0.899 1.512,-2.106 1.512,-3.68c0,-2.203 -0.778,-3.859 -2.321,-5.051c-1.566,-1.137 -3.812,-1.707 -6.781,-1.707c-2.301,0 -4.219,0.469 -5.731,1.379c-1.519,0.957 -2.277,2.086 -2.277,3.402c0,0.684 0.211,1.25 0.652,1.692c0.442,0.422 1.008,0.66 1.68,0.66c0.754,0 1.543,-0.449 2.348,-1.352c0.222,-0.254 0.383,-0.441 0.512,-0.547c0.418,-0.414 0.886,-0.714 1.429,-0.91c0.543,-0.175 1.227,-0.265 2.047,-0.265c1.027,0 1.817,0.16 2.375,0.496c0.555,0.336 0.836,0.832 0.836,1.441c0,0.817 -1.004,1.469 -2.988,1.945c-0.059,0.02 -0.094,0.02 -0.102,0.028l-2.027,0.472zm25.832,9.059c0,0.969 0.211,1.703 0.644,2.188c0.442,0.484 1.082,0.742 1.938,0.742c0.859,0 1.508,-0.258 1.953,-0.742c0.434,-0.485 0.645,-1.219 0.645,-2.188l0,-14.309c0,-0.964 -0.207,-1.695 -0.637,-2.167c-0.43,-0.461 -1.074,-0.7 -1.961,-0.7c-0.734,0 -1.328,0.184 -1.699,0.571c-0.375,0.379 -0.614,0.976 -0.672,1.8l-0.074,0.664c-0.625,-1.046 -1.434,-1.863 -2.454,-2.394c-0.996,-0.559 -2.156,-0.824 -3.476,-0.824c-2.121,0 -3.707,0.554 -4.781,1.683c-1.063,1.106 -1.598,2.778 -1.598,5.012l0,10.664c0,0.969 0.23,1.703 0.648,2.188c0.442,0.484 1.079,0.742 1.942,0.742c0.859,0 1.496,-0.258 1.949,-0.742c0.426,-0.485 0.652,-1.219 0.652,-2.188l0,-9.168c0,-1.391 0.231,-2.375 0.696,-2.953c0.468,-0.598 1.23,-0.891 2.289,-0.891c1.238,0 2.219,0.364 2.918,1.094c0.73,0.738 1.078,1.707 1.078,2.945l0,8.973zm19.094,-1.25c-1.36,0 -2.387,-0.508 -3.137,-1.492c-0.723,-1 -1.086,-2.442 -1.086,-4.313c0,-1.925 0.383,-3.394 1.125,-4.429c0.758,-1.02 1.824,-1.528 3.211,-1.528c1.301,0 2.34,0.508 3.094,1.528c0.742,1.035 1.125,2.433 1.125,4.226c0,1.949 -0.383,3.442 -1.11,4.465c-0.742,1.027 -1.824,1.543 -3.222,1.543zm-4.223,-13.187l0,-7.391c0,-0.953 -0.211,-1.68 -0.629,-2.16c-0.418,-0.473 -1.059,-0.703 -1.898,-0.703c-0.828,0 -1.481,0.23 -1.899,0.707c-0.437,0.476 -0.656,1.207 -0.656,2.156l0,21.836c0,0.961 0.219,1.695 0.656,2.18c0.418,0.484 1.071,0.742 1.926,0.742c0.77,0 1.34,-0.207 1.727,-0.598c0.386,-0.379 0.617,-0.976 0.66,-1.793l0.093,-0.644c0.547,1.062 1.325,1.879 2.313,2.441c0.988,0.602 2.117,0.875 3.367,0.875c2.379,0 4.332,-0.945 5.813,-2.82c1.496,-1.891 2.23,-4.371 2.23,-7.446c0,-3.093 -0.734,-5.613 -2.23,-7.546c-1.481,-1.934 -3.414,-2.899 -5.75,-2.899c-1.227,0 -2.332,0.262 -3.309,0.785c-0.965,0.524 -1.766,1.278 -2.414,2.278zm21.629,5.921c0.058,-1.523 0.445,-2.668 1.172,-3.476c0.711,-0.801 1.719,-1.207 3.023,-1.207c0.598,0 1.125,0.094 1.641,0.254c0.488,0.176 0.93,0.418 1.312,0.734c0.11,0.09 0.211,0.192 0.383,0.344c0.891,0.797 1.649,1.203 2.305,1.203c0.578,0 1.058,-0.195 1.453,-0.566c0.383,-0.371 0.578,-0.844 0.578,-1.399c0,-0.418 -0.094,-0.812 -0.305,-1.215c-0.218,-0.39 -0.531,-0.789 -0.957,-1.222c-0.824,-0.778 -1.836,-1.387 -3.011,-1.797c-1.164,-0.434 -2.442,-0.637 -3.832,-0.637c-2.809,0 -5.036,0.938 -6.668,2.836c-1.657,1.879 -2.481,4.438 -2.481,7.656c0,3.168 0.824,5.684 2.434,7.524c1.625,1.808 3.836,2.738 6.636,2.738c2.829,0 5.079,-0.871 6.75,-2.598c1.696,-1.734 2.547,-4.043 2.547,-6.945c0,-0.852 -0.164,-1.445 -0.468,-1.75c-0.329,-0.32 -1.086,-0.477 -2.325,-0.477l-10.187,0zm7.633,3.391c-0.063,1.32 -0.414,2.305 -1.059,3.012c-0.652,0.672 -1.578,1.019 -2.781,1.019c-1.141,0 -2.039,-0.347 -2.668,-1.019c-0.649,-0.707 -1.02,-1.692 -1.125,-3.012l7.633,0zm13.621,4.031c0.515,1.262 1.16,2.227 1.961,2.95c0.777,0.718 1.597,1.074 2.496,1.074c0.855,0 1.527,-0.254 2.012,-0.723c0.484,-0.473 0.734,-1.133 0.734,-1.965c0,-0.41 -0.074,-0.777 -0.207,-1.101c-0.137,-0.332 -0.344,-0.606 -0.633,-0.86c-0.328,-0.277 -0.937,-0.441 -1.793,-0.484c-0.496,-0.023 -0.875,-0.063 -1.137,-0.102c-1.007,-0.199 -1.781,-0.648 -2.293,-1.375c-0.519,-0.703 -0.769,-1.691 -0.769,-2.918l0,-7.711c0,-0.953 -0.234,-1.66 -0.656,-2.144c-0.438,-0.477 -1.082,-0.723 -1.95,-0.723c-0.867,0 -1.503,0.246 -1.937,0.723c-0.426,0.484 -0.656,1.191 -0.656,2.144l0,14.309c0,0.969 0.215,1.703 0.648,2.188c0.41,0.484 1.039,0.742 1.863,0.742c0.735,0 1.305,-0.207 1.704,-0.606c0.398,-0.414 0.613,-0.984 0.613,-1.703l0,-1.715zm14.465,-13.215c0,-0.953 -0.227,-1.66 -0.649,-2.144c-0.445,-0.477 -1.09,-0.723 -1.957,-0.723c-0.867,0 -1.496,0.239 -1.914,0.711c-0.426,0.477 -0.637,1.192 -0.637,2.156l0,21.208c0,0.972 0.211,1.699 0.637,2.183c0.418,0.473 1.047,0.703 1.914,0.703c0.867,0 1.512,-0.234 1.957,-0.715c0.422,-0.488 0.649,-1.211 0.649,-2.171l0,-6.489c0.718,0.891 1.574,1.531 2.523,1.985c0.988,0.445 2.055,0.675 3.234,0.675c1.168,0 2.18,-0.199 3.11,-0.601c0.937,-0.379 1.676,-0.945 2.226,-1.672c0.383,-0.5 0.657,-1.066 0.829,-1.703c0.14,-0.625 0.242,-1.625 0.242,-2.996l0,-10.407c0,-0.964 -0.207,-1.679 -0.625,-2.156c-0.422,-0.472 -1.071,-0.711 -1.926,-0.711c-0.867,0 -1.52,0.246 -1.957,0.723c-0.438,0.484 -0.645,1.191 -0.645,2.144l0,7.622c0,2.367 -0.218,3.855 -0.664,4.484c-0.433,0.637 -1.23,0.953 -2.351,0.953c-1.242,0 -2.215,-0.371 -2.926,-1.094c-0.715,-0.738 -1.07,-1.726 -1.07,-2.996l0,-8.969zm22.027,0c0,-0.953 -0.223,-1.66 -0.645,-2.144c-0.453,-0.477 -1.082,-0.723 -1.945,-0.723c-0.863,0 -1.508,0.246 -1.941,0.723c-0.442,0.484 -0.664,1.191 -0.664,2.144l0,14.309c0,0.969 0.222,1.703 0.664,2.188c0.433,0.484 1.078,0.742 1.941,0.742c0.863,0 1.492,-0.258 1.945,-0.742c0.422,-0.485 0.645,-1.219 0.645,-2.188l0,-14.309zm-5.344,21.352c0,0.742 0.281,1.395 0.813,1.934c0.551,0.55 1.176,0.808 1.941,0.808c0.781,0 1.406,-0.258 1.945,-0.789c0.536,-0.535 0.793,-1.183 0.793,-1.953c0,-0.754 -0.257,-1.394 -0.804,-1.926c-0.532,-0.543 -1.153,-0.812 -1.934,-0.812c-0.742,0 -1.367,0.273 -1.926,0.82c-0.539,0.551 -0.828,1.195 -0.828,1.918zm10.867,-8.137l-0.847,0c-0.684,0 -1.223,0.141 -1.555,0.465c-0.34,0.289 -0.523,0.742 -0.523,1.367c0,0.602 0.183,1.047 0.523,1.368c0.332,0.289 0.871,0.445 1.555,0.445l0.847,0l0,2.637c0,0.957 0.204,1.691 0.625,2.164c0.438,0.488 1.071,0.711 1.926,0.711c0.852,0 1.52,-0.223 1.942,-0.711c0.433,-0.473 0.66,-1.207 0.683,-2.188l0,-2.613l1.332,0c0.696,0 1.219,-0.156 1.559,-0.434c0.336,-0.312 0.515,-0.769 0.515,-1.379c0,-0.625 -0.179,-1.078 -0.515,-1.367c-0.356,-0.324 -0.875,-0.465 -1.559,-0.465l-1.332,0l0,-10.75c0,-0.468 0.102,-0.785 0.258,-0.949c0.148,-0.172 0.445,-0.269 0.879,-0.269c0.059,0 0.195,0.015 0.379,0.035c0.187,0.011 0.363,0.015 0.5,0.015c0.578,0 1.031,-0.16 1.344,-0.468c0.324,-0.317 0.484,-0.754 0.484,-1.325c0,-0.828 -0.293,-1.429 -0.863,-1.812c-0.559,-0.375 -1.481,-0.559 -2.723,-0.559c-2.051,0 -3.48,0.371 -4.254,1.153c-0.801,0.761 -1.18,2.257 -1.18,4.437l0,10.492zm17.782,-7.965c-2.434,0.598 -4.149,1.317 -5.184,2.239c-1.035,0.894 -1.531,2.101 -1.531,3.617c0,1.988 0.715,3.555 2.144,4.711c1.426,1.156 3.36,1.746 5.828,1.746c2.145,0 3.938,-0.414 5.364,-1.23c1.469,-0.829 2.172,-1.809 2.172,-2.977c0,-0.602 -0.196,-1.106 -0.606,-1.496c-0.41,-0.383 -0.926,-0.57 -1.543,-0.57c-0.597,0 -1.406,0.375 -2.437,1.191c-0.192,0.144 -0.317,0.246 -0.414,0.328c-0.27,0.211 -0.653,0.383 -1.125,0.531c-0.504,0.16 -0.977,0.231 -1.426,0.231c-0.969,0 -1.676,-0.153 -2.168,-0.453c-0.488,-0.301 -0.723,-0.762 -0.723,-1.364c0,-0.464 0.223,-0.847 0.66,-1.101c0.45,-0.262 1.454,-0.567 3.036,-0.914l1.609,-0.352c2.457,-0.547 4.172,-1.265 5.187,-2.14c0.989,-0.899 1.497,-2.106 1.497,-3.68c0,-2.203 -0.77,-3.859 -2.336,-5.051c-1.543,-1.137 -3.797,-1.707 -6.762,-1.707c-2.317,0 -4.211,0.469 -5.738,1.379c-1.52,0.957 -2.27,2.086 -2.27,3.402c0,0.684 0.215,1.25 0.664,1.692c0.43,0.422 0.992,0.66 1.664,0.66c0.762,0 1.531,-0.449 2.34,-1.352c0.223,-0.254 0.402,-0.441 0.52,-0.547c0.421,-0.414 0.894,-0.714 1.437,-0.91c0.531,-0.175 1.215,-0.265 2.047,-0.265c1.019,0 1.812,0.16 2.367,0.496c0.559,0.336 0.836,0.832 0.836,1.441c0,0.817 -0.996,1.469 -2.98,1.945c-0.059,0.02 -0.102,0.02 -0.106,0.028l-2.023,0.472" fill-rule="nonzero" fill="#231f20"/>
    <path id="path16" d="m-33.86997,313.90624c6.719,-0.246 12.863,1.543 20.195,1.051c3.02,-0.219 16.578,-0.375 18.629,-3.125c-0.883,-2.454 -6.477,-4.172 -9.695,-5.258c-6.743,-2.246 -27.442,-8.52 -33.586,-9.281l4.457,16.613zm46.797,26.019c-3.664,-3.179 -14.922,-6.629 -20.969,-8.566c-7.543,-2.395 -15.254,-5.184 -22.832,-7.352c1.449,4.899 6.226,13.661 5.797,18.551c-3.793,0.578 -4.715,-3.238 -6.735,-8.539c-1.086,-2.812 -2.656,-9.527 -4.097,-11.57c-4.008,-1.664 -14.914,-3.082 -17.516,-4.957c-1.766,-1.27 -3.039,-4.43 4.195,-4.723c4.028,-0.172 7.371,0.567 11.129,0.52l-4.699,-16.86c-1.004,-2.054 -34.269,-4.5662 -38.184,-8.4177c-1.98,-1.9492 -0.015,-2.6016 1.743,-2.6719l7.55,0.3672c6.036,0.7148 55.747,11.7384 59.848,12.7814c7.387,1.898 27.445,7.18 27.352,14.062c-0.141,8.977 -26.317,8.922 -31.672,9.825c6.871,1.957 47.101,13.613 39.371,21.171c-3.742,3.641 -19.695,5.168 -25.293,5.754c-16.363,1.727 -41.922,1.676 -57.211,-3.347c-4.484,-1.473 -7.031,-6.782 1.934,-5.672c4.425,0.566 9.168,1.527 13.613,2.32c16.176,2.848 28.094,1.746 43.851,0.531c4.028,-0.312 11.407,-0.011 12.825,-3.207" fill-rule="evenodd" fill="#231f20"/>
    <path id="path18" d="m177.50903,346.42524c-3.172,-0.41 -6.012,-0.98 -8.946,-1.816c-3.996,-1.164 -4.824,-1.902 -3.5,-5.789c3.258,-0.192 7.805,0.891 9.871,0.582c-0.73,-0.91 -4.414,-11.215 -5.195,-13.359c-1.144,-3.227 -4.422,-12.024 -1.082,-14.305c4.957,-3.414 24.313,7.32 27.039,9.715c0.746,-0.836 0.817,-2.41 2.461,-4.293c1.031,-1.168 2.246,-2.114 3.91,-2.77c4.539,-1.781 6.793,-1.668 11.953,-1.152c4.543,0.445 14.098,2.508 16.739,6.586c4.211,6.523 -12.176,-0.211 -13.239,-0.485c-4.621,-1.211 -12.004,-1.691 -13.3,2.481c5.535,3.133 13.062,4.703 21.332,10.215c2.07,1.39 2.824,1.715 4.175,3.629c4.911,6.894 -5.425,7.101 -13.191,4.675c-4.137,-1.273 -7.27,-3.429 -10.676,-5.25c-4.238,-2.222 -6.238,-4.644 -8.937,-6.984c-1.434,-1.242 -8.098,-4.746 -10.16,-5.727c-3.118,-1.472 -7.68,-4.304 -11.922,-3.757c-1.403,3.511 1.113,8.285 2.312,11.488c1.278,3.484 2.52,7.559 4.028,10.769c5.503,0.575 22.789,4.258 30.097,5.458c4.922,0.816 10.168,1.796 15.227,2.566c4.5,0.684 11.058,1.203 13.629,4.312c0.218,5.629 -8.75,3.106 -12.719,2.465c-4.742,-0.777 -9.57,-1.773 -14.332,-2.574c-9.785,-1.668 -19.555,-3.957 -29.203,-5.191c1.015,4.691 4.996,12.109 5.363,15.75c0.387,3.687 -1.305,3.523 -2.863,1.629c-1.18,-1.434 -3.578,-7.036 -4.477,-9.196c-1.129,-2.672 -3.035,-7.586 -4.394,-9.672" fill-rule="evenodd" fill="#231f20"/>
    <path id="path20" d="m134.41903,275.21074c2.59,-7.7109 10.719,-7.4219 19.137,-5.8945c7.433,1.3593 15.371,2.7109 22.687,3.9414c15.648,2.6054 30.41,4.8086 46.336,7.0156c17.898,2.5 57.508,2.5508 77.242,1.2422c8.719,-0.5781 20.297,-5.4883 21.938,-1.5625c2.109,5.0937 -13.457,8.043 -17.567,8.3906c-8.523,0.7266 -16.801,1.2735 -25.468,1.2735c-24.875,0 -50.594,-0.9844 -74.84,-5.0782c-7.621,-1.2734 -15.301,-2.2812 -23.078,-3.6406c-7.731,-1.3203 -14.875,-2.6445 -22.598,-4.043c-8.047,-1.4375 -14.899,-2.9882 -23.789,-1.6445" fill-rule="evenodd" fill="#231f20"/>
    <path id="path22" d="m357.78203,326.25024c0.328,5.191 4.016,8.48 6.035,11.285l3.043,-1.645c-0.625,-1.574 -2.683,-4.679 -3.57,-5.742c-1.691,-2.203 -3.301,-3.848 -5.508,-3.898zm-48.766,5.554c-0.421,1.434 1.219,4.387 2.27,5.563c1.875,2.152 3.047,3.707 4.75,3.613c0.602,-2.457 -1.027,-4.801 -2.184,-6.156c-0.55,-0.645 -1.558,-1.781 -2.125,-2.36c-0.964,-0.937 -1.277,-0.949 -2.168,-0.851l-0.543,0.191zm5.758,-1.234c0.254,-3.922 -0.89,-10.145 3.649,-10.899c4.136,-0.675 9.472,2.461 10.945,4.457c0.039,-0.082 0.086,-0.132 0.086,-0.292l0.723,-1.969c3.121,-0.149 3.738,3.136 6.511,7.883c1.215,2.054 4.981,5.89 8.426,6.308c0.012,-4.558 -3.594,-10.406 -3.152,-14.969c0.594,-6.222 8.789,-0.445 10.719,1.434c1.39,-0.645 4.585,-5.562 11.918,1.867c2.078,2.121 7,7.344 8.101,10.379c3.406,0.035 6.477,0.488 8.559,2.223c1.297,1.086 5.015,4.211 3.242,6.625c-1.25,0.894 -2.84,-1.047 -3.93,-1.86c-2.269,-1.714 -2.426,-1.574 -5.797,-1.593c0.309,1.804 3.25,12.097 -3.398,10.492c-3.223,-0.778 -8.117,-6.543 -10.231,-9.094c-2.75,-3.34 -6.433,-7.543 -7.968,-11.637c-0.493,-1.297 -0.231,-1.82 -1.606,-2.468c-1.133,-0.547 -2.414,-0.551 -3.351,-0.184c-1.774,1.691 4.898,13.207 6.136,15.895c1.2,2.605 1.707,3.445 0.543,5.582c-5.34,0.406 -10.527,-7.122 -12.508,-8.125c2.614,7.484 18.02,27.902 9.083,28.308c-2.223,-8.91 -1.176,-6.496 -6.149,-15.64c-4.875,-8.895 -9.656,-20.504 -16.976,-27.067c-2.563,-2.254 -11.708,-6.23 -8.438,7.695c0.418,1.75 3.57,11.11 -1.988,11.719c-1.282,0.129 -3.235,-1.027 -4.106,-1.547c-2.129,-1.168 -9.008,-8.875 -10.605,-11.605c-8.043,-13.867 0.012,-18.203 7.148,-8.227c1.133,1.598 3.789,4.571 4.414,6.309" fill-rule="evenodd" fill="#231f20"/>
    <path id="path24" d="m291.30903,359.75724c4.442,0.543 11.532,0.989 16.29,0.704c0.57,-0.036 2.007,-0.137 2.492,-0.231c8.465,-1.809 -17.039,-12.848 -21.391,-14.098c1.09,3.348 7.258,10.094 5.859,13.024c-1.652,0.265 -2.125,-0.485 -3.027,-1.055c-0.465,-1.781 -5.871,-10.301 -6.742,-11.633c-2.102,-3.152 -6.617,-3.543 -12.426,-6.066c-3.863,-1.695 -10.043,-3.836 -11.961,-6.602c-2.379,-3.422 5.625,-2.449 12.813,-4.453c-0.598,-1.679 -3.543,-5.781 -4.793,-7.586c-1.688,-2.461 -3.016,-4.73 -4.813,-7.437c-2.609,-3.965 -9.273,-13.52 -0.437,-15.438c0.972,7.371 1.804,7.231 6.5,14.961c1.82,3.016 6.824,10.801 7.855,13.512c2.988,-1.348 7.137,-6.262 10.192,-6.934c1.777,-0.382 3.558,0.36 4.093,1.649c1.25,3.047 -7.25,10.133 -9.953,12.894c3.614,1.231 7.797,3.45 11.199,5.075c9.829,4.71 12.692,5.679 21.739,11.949c2.047,1.433 8.777,5.344 6.41,9.738c-3.887,7.234 -34.856,2.949 -43.356,1.363c-3.691,-0.683 -10.238,-2.64 -9.753,-7.136c1.636,0.531 2.785,1.371 4.73,1.652c2.195,0.32 4.156,0.598 6.258,0.832c4.035,0.426 8.312,0.715 12.222,1.316" fill-rule="evenodd" fill="#231f20"/>
    <path id="path26" d="m101.57903,315.71124c-0.75,3.371 4.648,10.937 8.211,11.113c1.18,-3.485 -2.836,-7.766 -5.024,-9.832c-0.91,-0.887 -1.449,-1.61 -3.187,-1.281zm34.453,5.164c-0.34,3.714 4.309,10.543 7.012,10c0.512,-2.481 -0.906,-4.692 -2.086,-6.368c-1.18,-1.691 -2.457,-4.066 -4.926,-3.632zm-28.266,-7.344c-0.242,-5.231 -0.48,-10.078 5.11,-10.246c4.258,-0.11 8.578,2.34 11.5,4.09c5.316,3.175 2.652,1.761 5.265,1.253c2.309,-0.468 4.231,1.2 5.309,2.254c4.563,4.528 3.387,4.25 6.734,8.715c0.2,-4.16 -1.25,-7.57 0.786,-11.496c3.914,-7.566 15.308,6.254 18.05,10.149c1.047,1.507 1.579,2.863 1.629,5.07c-2.082,0.055 -3.16,-1.66 -4.289,-2.789c-1.32,-1.332 -2.535,-2.227 -3.867,-3.535c-0.57,-0.555 -7.684,-8.926 -7.988,-2.61c-0.184,3.895 1.469,8.844 2.164,12.453c0.707,3.676 0.629,10.86 -3.766,10.493c-4.418,-0.356 -14.445,-14.875 -16.34,-19.973c-1.226,-3.285 -0.582,-2.32 -3.375,-4.004c-1.636,-0.98 -7.855,-5.465 -10.398,-3.898c-4.399,2.683 6.348,18.062 0.047,23.433c-4.809,4.094 -16.676,-12.07 -19.153,-15.562c-9.523,-13.469 -5.093,-22.434 5.676,-11.985l5.145,5.942c0.597,0.832 0.844,1.601 1.761,2.246" fill-rule="evenodd" fill="#231f20"/>
    <path id="path28" d="m83.41903,325.06224c3.969,0.535 8.59,0.77 11.5,2.609l-0.231,3.68c-3.441,1.496 -21.5,-0.93 -26.609,-1.344c-2.105,-0.171 -5.051,-0.054 -6.078,-1.332c-1.141,-1.418 -0.067,-4.461 0.906,-5.386c1.692,-1.629 3.699,-0.614 5.836,0.125c3.527,1.234 5.871,1.086 9.184,0.812c1.593,-13.219 2.347,-19.39 -9.075,-30.535c-4.691,-4.5782 -9.925,-9.3946 -16.539,-13.0821c-5.214,-2.9179 -14.414,-8.0117 -21.203,-8.5273c-7.91,-0.6055 -8.047,5.4766 -10.742,2.7266c-1.41,-1.4375 -0.016,-3.9571 0.863,-5.0391c1.078,-1.3242 2.7,-2.082 4.797,-2.5586c9.321,-2.1445 25.137,5.5 32.965,10.4375c8.152,5.1289 17.832,13.8867 21.891,22.52c5.015,10.683 3.179,12.937 2.535,24.894" fill-rule="evenodd" fill="#231f20"/>
    <path id="path30" d="m39.64103,322.26924c0.477,-4.125 -6.683,-13.047 -8.89,-10.824c-1.106,1.101 1.992,5.738 2.621,6.617c1.18,1.602 3.305,4.477 6.269,4.207zm-2.281,-12.641c-1.066,-10.156 1.512,-13.656 11.504,-9.636c2.481,1.008 6.074,3.062 7.77,4.426c2.086,1.679 5.242,3.503 5.433,6.918c-4.98,1.281 -16.222,-10.809 -18.847,-5.84c-1.879,3.55 7.687,16.172 1.957,22.281c-4.032,4.258 -8.942,-1.008 -11.504,-3.719c-4.289,-4.547 -4.278,-4.004 -8.668,-9.855c-2.035,-2.711 -11.676,-17.918 -2.813,-18.129c6.617,-0.149 13.383,11.926 15.168,13.554" fill-rule="evenodd" fill="#231f20"/>
    <path id="path32" d="m381.06703,316.44124c3.157,7.836 2.074,5.859 8.344,13.875l22.352,28.355c0.832,1.024 1.804,2.047 2.441,3.137c1.547,2.617 2.098,6.762 -0.387,8.778c-0.726,-1.415 -0.601,-2.243 -1.676,-3.774c-0.89,-1.258 -1.613,-2.199 -2.558,-3.351l-26.809,-32.411c-4.933,-5.742 -8.152,-10.148 -1.707,-14.609" fill-rule="evenodd" fill="#231f20"/>
    <path id="path34" d="m377.93103,304.15624c-2.954,-1.914 -2.247,-7.57 2.734,-5.809c3.535,1.235 1.984,8.875 -2.734,5.809" fill-rule="evenodd" fill="#231f20"/>
    <path id="path36" d="m182.32503,700.13224l2.188,2.36l2.898,-2.485l-0.25,-0.664l17.559,-14.449l0.668,0.246l24.496,-20.929l0.672,0.488l38.972,-33.035l0.863,0.613l10.235,-8.668l1.898,0c22.598,0 41.094,-18.504 41.094,-41.102l0,-82.871c0,-22.597 -18.496,-41.086 -41.094,-41.086l-231.324,0c-22.609,0 -41.094,18.489 -41.094,41.086l0,82.871c0,22.598 18.485,41.102 41.094,41.102l219.352,0l-4.555,3.93l0.793,0.668l-39.457,32.832l0.418,0.73l-24.442,20.805l0.61,0.773l-17.875,15.086l-0.66,-0.121l-3.059,1.82" fill-rule="evenodd" fill="#ed1c24"/>
    <path id="path38" d="m156.60203,525.26524l46.75,0.555l0.289,32.547l-5.527,0.472l-41.922,0.211l-0.281,23.071l0.508,3.195l5.801,0.496l45.925,0.035l0.012,33.254l-91.82,-0.336l-0.336,-115.105l0.473,-38.352l91.578,-0.129l0.359,25.145l-0.582,7.879l-51.43,0.738l-0.504,23.23l0.707,3.094" fill-rule="evenodd" fill="#ffffff"/>
    <path id="path40" d="m252.18103,498.49224l-0.079,87.32c10.926,0.754 20.508,-2.242 22.899,-10.871c1.765,-6.281 0.894,-24.906 0.894,-32.797c0,-8.305 0.871,-26.129 -0.789,-32.879c-2.238,-9.082 -11.808,-11.316 -22.925,-10.773zm51.894,-10.11c6.695,7.653 9.309,16.465 9.293,27.121l0,54.786c0.008,6.203 -1.098,10.531 -2.988,15.281c-4.028,10.141 -17.164,19.066 -27.188,22.808c-3.972,1.176 -9.371,0.504 -10.574,0.668c-2.121,0.254 -2.824,0.582 -5.668,0.551l-37.371,0.008c-1.75,0 -12.297,0.859 -12.527,-0.531l-0.473,-1.067c-0.113,-0.492 -0.125,-1.625 -0.141,-2.183c0,-1.36 0,-2.731 0,-4.082c-0.007,-2.828 0,-5.664 0,-8.508c0,-17.117 -0.507,-117.266 0.34,-118.074l2.426,-0.407c11.391,-0.105 54.148,-0.343 59.426,0.344c10.054,2.266 18.453,5.285 25.445,13.285" fill-rule="evenodd" fill="#ffffff"/>
    <path id="path42" d="m51.03203,552.10124l-0.039,28.203c12.504,0.157 19.895,-1.058 19.984,-14.097c0.075,-15.145 -10.078,-14.18 -19.945,-14.106zm0.063,-22.328c7.242,-1.023 17.679,2.137 21.304,-6.039c1.043,-2.332 0.664,-5.731 0.664,-8.594c0,-11.898 -0.429,-24.64 0.063,-36.422l36.195,0.18c0.195,3.984 -2.172,1.672 -4.117,5.898c-1.523,3.266 -0.59,25.524 -0.59,30.344c0,7.266 0.621,12.399 -2.961,17.524c-2.594,3.672 -6.527,7.129 -13.058,7.742c16.429,10.172 15.504,17.972 15.468,35.808c-0.007,12.325 -9.187,30.45 -22.632,28.696l-60.606,0.851c-0.574,-0.691 -0.684,-125.093 -0.047,-125.832l29.504,0.168l0.813,49.676" fill-rule="evenodd" fill="#ffffff"/>
    <path id="path44" d="m24.86403,442.74624l31.098,0l0,-10.461l-12.637,0l0,-9.528l10.84,0l0,-10.023l-10.84,0l0,-21.883l-18.461,0l0,51.895zm33.402,0l24.594,0l4.805,-30.293l4.508,30.293l24.879,0l0,-51.895l-15.645,0l0,38.52l-7.98,-38.52l-11.735,0l-7.773,38.52l0,-38.52l-15.653,0l0,51.895zm102.524,-34.52c-9.641,0 -14.438,4.563 -14.438,13.664l0,6.321c0,10.41 6.977,15.617 20.95,15.617c14.132,0 21.172,-5.465 21.172,-16.41l0,-20.86c0,-11.195 -6.993,-16.793 -20.965,-16.793c-7.082,0 -12.262,1.149 -15.504,3.461c-3.242,2.301 -4.852,6.012 -4.852,11.145l17.246,0c0,-0.344 0,-0.817 0,-1.446c-0.066,-0.578 -0.101,-1.039 -0.101,-1.379c0,-2.921 1.164,-4.363 3.515,-4.363c2.266,0 3.395,1.137 3.395,3.414l0,12.137c-3.063,-3.004 -6.531,-4.508 -10.418,-4.508zm2.801,12.86c0,-2.172 1.281,-3.274 3.82,-3.274c2.547,0 3.797,1.102 3.797,3.274l0,12.066c0,2.172 -1.25,3.266 -3.797,3.266c-2.539,0 -3.82,-1.094 -3.82,-3.266l0,-12.066zm30.906,7.921c0,5.278 1.453,9.071 4.359,11.379c2.907,2.301 7.95,3.442 15.098,3.442c7.828,0 13.375,-1.16 16.602,-3.485c3.238,-2.328 4.871,-6.293 4.871,-11.914c0,-4.801 -2.871,-7.531 -8.621,-8.218c3.933,-0.622 6.671,-2.024 8.214,-4.211c1.141,-1.696 1.704,-4.161 1.704,-7.414c0,-0.532 0,-1.309 0,-2.313c-0.063,-0.984 -0.102,-1.738 -0.102,-2.266c0,-5.121 -1.828,-8.851 -5.516,-11.113c-3.406,-2.09 -8.687,-3.129 -15.843,-3.129c-9.7,0 -15.856,1.965 -18.465,5.891c-1.532,2.328 -2.301,7.484 -2.301,15.476l16.547,0c0,-0.625 -0.07,-1.574 -0.195,-2.836c-0.141,-1.261 -0.208,-2.195 -0.208,-2.835c0,-5.243 1.411,-7.844 4.223,-7.844c2.188,0 3.317,1.281 3.317,3.844l0,8.074c0,2.183 -0.614,3.601 -1.86,4.285c-1.25,0.691 -3.402,1.012 -6.476,1.012l-2.914,0l0,7.418l3.511,0c2.75,0 4.649,0.293 5.711,0.863c1.34,0.691 2.028,1.969 2.028,3.863l0,6.969c0,1.656 -1.137,2.473 -3.422,2.473c-2.672,0 -4.016,-1.887 -4.016,-5.657c0,-0.976 0.106,-2.449 0.301,-4.445l-16.547,0l0,2.691zm50.258,-27.675l13.844,0l0,-10.481l-13.844,0l0,10.481zm62.082,41.414l0,-8.278l-22.567,0l-0.898,-10.547c0.734,1.645 2.312,2.926 4.711,3.86c2.086,0.824 4.418,1.226 7.027,1.226c9.164,0 13.75,-4.39 13.75,-13.148l0,-10.539c0,-5.387 -1.758,-9.324 -5.265,-11.813c-3.52,-2.492 -9.024,-3.742 -16.5,-3.742c-13.594,0 -20.383,4.387 -20.383,13.16l0,7.121l17.269,0c0,-0.777 -0.043,-1.441 -0.117,-1.949c-0.328,-2.73 -0.492,-4.332 -0.492,-4.82c0,-4.063 1.445,-6.094 4.316,-6.094c2.61,0 3.903,1.254 3.903,3.778l0,14.824c0,2.426 -1.196,3.633 -3.59,3.633c-0.938,0 -1.762,-0.25 -2.469,-0.743c-0.695,-0.464 -1.016,-1.043 -0.961,-1.714l-17.859,0l1.109,25.785l39.016,0" fill-rule="nonzero" fill="#ed1c24"/>
   </g>
  </g>
  <text xml:space="preserve" text-anchor="start" font-family="'Trebuchet MS', Gadget, sans-serif" font-size="35" id="svg_1" y="460.4375" x="145.5" stroke-width="0" stroke="#000" fill="#000000">Radio Partner</text>
 </g>
</svg>