
<svg width="500" height="500" xmlns="http://www.w3.org/2000/svg">
 <metadata id="metadata8">image/svg+xml</metadata>

 <g>
  <title>background</title>
  <rect x="-1" y="-1" width="502" height="502" id="canvas_background" fill="none"/>
 </g>
 <g>
  <title>Layer 1</title>
  <g transform="matrix(0.7678429381373971,0,0,-0.7160286405986805,1.4473813038724974,149.63230626192194) " id="g10">
   <g transform="translate(0,2.842170943040401e-14) scale(0.10000000149011612) " id="g12">
    <path id="path14" d="m2366.12572,-1190.57979c0,504.193 -408.71,912.923 -912.897,912.923c-504.195,0 -912.89409,-408.73 -912.89409,-912.923c0,-485.086 374.32009,-882.324 851.77709,-912.8904l0,706.6324c-87.84,26.735 -152.785,106.957 -152.785,206.258c0,114.613 95.492,210.093 213.902,210.093c118.407,0 213.907,-95.48 213.907,-210.093c0,-99.301 -64.92,-179.523 -156.606,-206.258l0,-706.6324c477.466,30.5664 855.596,427.8044 855.596,912.8904l0,0" fill-rule="evenodd" fill="#00b6f0"/>
    <path id="path16" d="m3659.65572,-809.98679c55.32,110.65 110.65,221.31 165.98,331.96c-314.21,293.78 -911.11,280.81 -1105.71,-139.73c-51.86,-112.1 -50.05,-236.33 -0.58,-366.9c23.89,-63.02 66.85,-141.6 135.09,-197.915c34.87,-28.789 168.84,-95.141 277.15,-144.238c101.33,-45.938 240.82,-78.914 304.86,-169.477c73.19,-103.488 27.99,-231.277 -141.77,-254.547c-95.13,-13.031 -236.73,26.516 -447.76,196.801c-74.41,-97.305 -148.81,-194.598 -223.22,-291.898c709.83,-619.028 1365.05,-77.051 1211.52,404.66c-39,122.363 -119.24,216.461 -218.64,288.269c-153.75,111.035 -314.27,141.135 -421.43,187.845c-200.78,87.52 -172.45,333.88 105.98,318.84c176.21,-9.51 232.82,-59.83 358.53,-163.67" fill-rule="evenodd" fill="#271e79"/>
    <path id="path18" d="m4019.42572,-276.93679l688.25,0c231.38,0 502.67,-201.05 502.67,-441.07c0,-55.46 3.83,-97.03 0.03,-161.43c-7.52,-127.37 -125.05,-270.338 -200.79,-270.338c117.87,0 235.63,-168.836 264.54,-285.707c70.23,-283.844 -78.9,-688.07828 -566.45,-688.07828l-688.25,0l0,1846.62328zm369.14,-336.97l270.44,0c101.52,0 184.58,-86.16 184.58,-191.49l0,-27.43c0,-90.23 -71.16,-164.05 -158.13,-164.05l-111.61,0l0,-341.425l130.22,0c117.66,0 213.92,-99.86 213.92,-221.915l0,-0.011c0,-122.055 -96.26,-221.914 -213.92,-221.914l-315.5,0c0,389.414 0,778.825 0,1168.235" fill-rule="evenodd" fill="#271e79"/>
    <path id="path20" d="m5458.13572,-2123.55616l389.195,0l0,1846.61997l-389.195,0l0,-1846.61997z" fill-rule="evenodd" fill="#271e79"/>
   </g>
  </g>
  <text stroke="#000" transform="matrix(1.9087742069522082,0,0,1.9145428408903074,-140.8214161723455,-331.47166072454297) " xml:space="preserve" text-anchor="start" font-family="'Trebuchet MS', Gadget, sans-serif" font-size="24" id="svg_1" y="383.4375" x="121.454032" stroke-width="0" fill="#000000">Banking Partner</text>
 </g>
</svg>