<?xml version="1.0" encoding="utf-8"?>
<!-- Generator: Adobe Illustrator 23.0.5, SVG Export Plug-In . SVG Version: 6.00 Build 0)  -->
<svg version="1.1" id="Layer_1" xmlns="http://www.w3.org/2000/svg" xmlns:xlink="http://www.w3.org/1999/xlink" x="0px" y="0px"
	 viewBox="0 0 1480 124.2" style="enable-background:new 0 0 1480 124.2;" xml:space="preserve">
<style type="text/css">
	.st0{opacity:0.29;enable-background:new    ;}
	.st1{fill-rule:evenodd;clip-rule:evenodd;}
</style>
<title>mountains</title>
<g id="Object">
	<rect x="680.8" y="69.5" transform="matrix(4.362639e-03 -1 1 4.362639e-03 634.9611 794.6035)" width="71.4" height="17.9"/>
	<rect x="701.6" y="46.6" transform="matrix(4.362639e-03 -1 1 4.362639e-03 660.8876 769.0339)" width="30" height="12.1"/>
	<rect x="708.4" y="39.3" transform="matrix(4.362639e-03 -1 1 4.362639e-03 670.8506 759.1805)" width="16.6" height="6.7"/>
	<polygon points="719,42.9 714.4,42.9 714.4,31.6 716.1,31.6 717.7,31.6 719,31.6 	"/>
	<polygon points="716.4,38 715.9,38 716,26.6 716.1,26.6 716.3,26.6 716.4,26.6 	"/>
	<polygon points="717.5,34.1 717,34.1 717.1,22.7 717.2,22.7 717.4,22.7 717.6,22.7 	"/>
	<rect x="716.3" y="33.5" transform="matrix(4.362639e-03 -1 1 4.362639e-03 670.6146 759.4235)" width="0.8" height="18.9"/>
	<rect x="716.3" y="31.1" transform="matrix(4.362639e-03 -1 1 4.362639e-03 675.9476 754.1499)" width="0.7" height="13"/>
	<rect x="716.3" y="30.6" transform="matrix(4.362639e-03 -1 1 4.362639e-03 679.1426 750.8081)" width="0.6" height="7.5"/>
	
		<rect x="710.5" y="40.1" transform="matrix(4.362639e-03 -1 1 4.362639e-03 668.5511 752.2505)" class="st0" width="3.1" height="0.6"/>
	
		<rect x="712" y="40.1" transform="matrix(4.362639e-03 -1 1 4.362639e-03 670.0876 753.8073)" class="st0" width="3.1" height="0.6"/>
	
		<rect x="713.6" y="40.1" transform="matrix(4.362639e-03 -1 1 4.362639e-03 671.624 755.364)" class="st0" width="3.1" height="0.6"/>
	
		<rect x="715.1" y="40.1" transform="matrix(4.362639e-03 -1 1 4.362639e-03 673.1704 756.9307)" class="st0" width="3.1" height="0.6"/>
	
		<rect x="716.7" y="40.1" transform="matrix(4.362639e-03 -1 1 4.362639e-03 674.7068 758.4874)" class="st0" width="3.1" height="0.6"/>
	
		<rect x="718.2" y="40.1" transform="matrix(4.362639e-03 -1 1 4.362639e-03 676.2433 760.0441)" class="st0" width="3.1" height="0.6"/>
	
		<rect x="719.8" y="40.1" transform="matrix(4.362639e-03 -1 1 4.362639e-03 677.7897 761.6108)" class="st0" width="3.1" height="0.6"/>
	<rect x="708.1" y="46.7" transform="matrix(4.362639e-03 -1 1 4.362639e-03 659.4237 757.155)" width="3.7" height="1.4"/>
	
		<rect x="710.8" y="46.8" transform="matrix(4.362639e-03 -1 1 4.362639e-03 662.0902 759.8567)" class="st0" width="3.7" height="1.4"/>
	<rect x="713.4" y="46.8" transform="matrix(4.362639e-03 -1 1 4.362639e-03 664.7468 762.5482)" width="3.7" height="1.4"/>
	<rect x="716.1" y="46.8" transform="matrix(4.362639e-03 -1 1 4.362639e-03 667.4133 765.2499)" width="3.7" height="1.4"/>
	<rect x="718.8" y="46.8" transform="matrix(4.362639e-03 -1 1 4.362639e-03 670.0699 767.9415)" width="3.7" height="1.4"/>
	<rect x="721.5" y="46.8" transform="matrix(4.362639e-03 -1 1 4.362639e-03 672.7364 770.6431)" width="3.7" height="1.4"/>
	<rect x="708.1" y="52.6" transform="matrix(4.362639e-03 -1 1 4.362639e-03 653.5886 762.9143)" width="3.7" height="1.4"/>
	<rect x="710.7" y="52.6" transform="matrix(4.362639e-03 -1 1 4.362639e-03 656.2551 765.6159)" width="3.7" height="1.4"/>
	<rect x="713.4" y="52.6" transform="matrix(4.362639e-03 -1 1 4.362639e-03 658.9117 768.3075)" width="3.7" height="1.4"/>
	
		<rect x="716.1" y="52.6" transform="matrix(4.362639e-03 -1 1 4.362639e-03 661.5782 771.0092)" class="st0" width="3.7" height="1.4"/>
	<rect x="718.8" y="52.6" transform="matrix(4.362639e-03 -1 1 4.362639e-03 664.2347 773.7007)" width="3.7" height="1.4"/>
	<rect x="721.5" y="52.6" transform="matrix(4.362639e-03 -1 1 4.362639e-03 666.9012 776.4023)" width="3.7" height="1.4"/>
	<rect x="708" y="58.4" transform="matrix(4.362639e-03 -1 1 4.362639e-03 647.7434 768.6835)" width="3.7" height="1.4"/>
	<rect x="710.7" y="58.4" transform="matrix(4.362639e-03 -1 1 4.362639e-03 650.4099 771.3851)" width="3.7" height="1.4"/>
	<rect x="713.4" y="58.4" transform="matrix(4.362639e-03 -1 1 4.362639e-03 653.0665 774.0767)" width="3.7" height="1.4"/>
	<rect x="716.1" y="58.4" transform="matrix(4.362639e-03 -1 1 4.362639e-03 655.733 776.7783)" width="3.7" height="1.4"/>
	
		<rect x="718.8" y="58.4" transform="matrix(4.362639e-03 -1 1 4.362639e-03 658.3896 779.4698)" class="st0" width="3.7" height="1.4"/>
	
		<rect x="721.5" y="58.4" transform="matrix(4.362639e-03 -1 1 4.362639e-03 661.0561 782.1715)" class="st0" width="3.7" height="1.4"/>
	
		<rect x="708" y="64.2" transform="matrix(4.362639e-03 -1 1 4.362639e-03 641.9083 774.4427)" class="st0" width="3.7" height="1.4"/>
	<rect x="710.7" y="64.2" transform="matrix(4.362639e-03 -1 1 4.362639e-03 644.5748 777.1443)" width="3.7" height="1.4"/>
	<rect x="713.4" y="64.2" transform="matrix(4.362639e-03 -1 1 4.362639e-03 647.2314 779.8359)" width="3.7" height="1.4"/>
	<rect x="716.1" y="64.2" transform="matrix(4.362639e-03 -1 1 4.362639e-03 649.8979 782.5375)" width="3.7" height="1.4"/>
	<rect x="718.7" y="64.2" transform="matrix(4.362639e-03 -1 1 4.362639e-03 652.5544 785.2291)" width="3.7" height="1.4"/>
	<rect x="721.4" y="64.2" transform="matrix(4.362639e-03 -1 1 4.362639e-03 655.2209 787.9308)" width="3.7" height="1.4"/>
	<rect x="708" y="70" transform="matrix(4.362639e-03 -1 1 4.362639e-03 636.0631 780.2119)" width="3.7" height="1.4"/>
	
		<rect x="710.7" y="70" transform="matrix(4.362639e-03 -1 1 4.362639e-03 638.7296 782.9135)" class="st0" width="3.7" height="1.4"/>
	<rect x="713.3" y="70" transform="matrix(4.362639e-03 -1 1 4.362639e-03 641.3862 785.6051)" width="3.7" height="1.4"/>
	
		<rect x="716" y="70" transform="matrix(4.362639e-03 -1 1 4.362639e-03 644.0527 788.3067)" class="st0" width="3.7" height="1.4"/>
	<rect x="718.7" y="70.1" transform="matrix(4.362639e-03 -1 1 4.362639e-03 646.7093 790.9983)" width="3.7" height="1.4"/>
	<rect x="721.4" y="70.1" transform="matrix(4.362639e-03 -1 1 4.362639e-03 649.3758 793.7)" width="3.7" height="1.4"/>
	<rect x="708" y="75.8" transform="matrix(4.362639e-03 -1 1 4.362639e-03 630.228 785.9711)" width="3.7" height="1.4"/>
	<rect x="710.6" y="75.8" transform="matrix(4.362639e-03 -1 1 4.362639e-03 632.8945 788.6727)" width="3.7" height="1.4"/>
	<rect x="713.3" y="75.8" transform="matrix(4.362639e-03 -1 1 4.362639e-03 635.5511 791.3643)" width="3.7" height="1.4"/>
	<rect x="716" y="75.8" transform="matrix(4.362639e-03 -1 1 4.362639e-03 638.2176 794.066)" width="3.7" height="1.4"/>
	<rect x="718.7" y="75.9" transform="matrix(4.362639e-03 -1 1 4.362639e-03 640.8741 796.7576)" width="3.7" height="1.4"/>
	
		<rect x="721.4" y="75.9" transform="matrix(4.362639e-03 -1 1 4.362639e-03 643.5406 799.4592)" class="st0" width="3.7" height="1.4"/>
	<rect x="707.9" y="81.6" transform="matrix(4.362639e-03 -1 1 4.362639e-03 624.3929 791.7303)" width="3.7" height="1.4"/>
	
		<rect x="710.6" y="81.6" transform="matrix(4.362639e-03 -1 1 4.362639e-03 627.0594 794.432)" class="st0" width="3.7" height="1.4"/>
	
		<rect x="713.3" y="81.6" transform="matrix(4.362639e-03 -1 1 4.362639e-03 629.7159 797.1236)" class="st0" width="3.7" height="1.4"/>
	<rect x="716" y="81.7" transform="matrix(4.362639e-03 -1 1 4.362639e-03 632.3824 799.8252)" width="3.7" height="1.4"/>
	<rect x="718.7" y="81.7" transform="matrix(4.362639e-03 -1 1 4.362639e-03 635.0391 802.5168)" width="3.7" height="1.4"/>
	<rect x="721.4" y="81.7" transform="matrix(4.362639e-03 -1 1 4.362639e-03 637.7056 805.2184)" width="3.7" height="1.4"/>
	<rect x="707.9" y="87.4" transform="matrix(4.362639e-03 -1 1 4.362639e-03 618.5477 797.4995)" width="3.7" height="1.4"/>
	<rect x="710.6" y="87.5" transform="matrix(4.362639e-03 -1 1 4.362639e-03 621.2142 800.2012)" width="3.7" height="1.4"/>
	<rect x="713.3" y="87.5" transform="matrix(4.362639e-03 -1 1 4.362639e-03 623.8708 802.8928)" width="3.7" height="1.4"/>
	<rect x="716" y="87.5" transform="matrix(4.362639e-03 -1 1 4.362639e-03 626.5373 805.5944)" width="3.7" height="1.4"/>
	
		<rect x="718.6" y="87.5" transform="matrix(4.362639e-03 -1 1 4.362639e-03 629.1938 808.2859)" class="st0" width="3.7" height="1.4"/>
	<rect x="721.3" y="87.5" transform="matrix(4.362639e-03 -1 1 4.362639e-03 631.8604 810.9876)" width="3.7" height="1.4"/>
	<rect x="707.9" y="93.3" transform="matrix(4.362639e-03 -1 1 4.362639e-03 612.7126 803.2588)" width="3.7" height="1.4"/>
	
		<rect x="710.6" y="93.3" transform="matrix(4.362639e-03 -1 1 4.362639e-03 615.3791 805.9604)" class="st0" width="3.7" height="1.4"/>
	<rect x="713.2" y="93.3" transform="matrix(4.362639e-03 -1 1 4.362639e-03 618.0356 808.652)" width="3.7" height="1.4"/>
	<rect x="715.9" y="93.3" transform="matrix(4.362639e-03 -1 1 4.362639e-03 620.7021 811.3536)" width="3.7" height="1.4"/>
	<rect x="718.6" y="93.3" transform="matrix(4.362639e-03 -1 1 4.362639e-03 623.3588 814.0452)" width="3.7" height="1.4"/>
	<rect x="721.3" y="93.3" transform="matrix(4.362639e-03 -1 1 4.362639e-03 626.0253 816.7468)" width="3.7" height="1.4"/>
	<rect x="707.9" y="99.1" transform="matrix(4.362639e-03 -1 1 4.362639e-03 606.8774 809.018)" width="3.7" height="1.4"/>
	<rect x="710.5" y="99.1" transform="matrix(4.362639e-03 -1 1 4.362639e-03 609.5439 811.7197)" width="3.7" height="1.4"/>
	<rect x="713.2" y="99.1" transform="matrix(4.362639e-03 -1 1 4.362639e-03 612.2005 814.4113)" width="3.7" height="1.4"/>
	
		<rect x="715.9" y="99.1" transform="matrix(4.362639e-03 -1 1 4.362639e-03 614.8671 817.1129)" class="st0" width="3.7" height="1.4"/>
	<rect x="718.6" y="99.1" transform="matrix(4.362639e-03 -1 1 4.362639e-03 617.5236 819.8044)" width="3.7" height="1.4"/>
	
		<rect x="721.3" y="99.1" transform="matrix(4.362639e-03 -1 1 4.362639e-03 620.1901 822.5061)" class="st0" width="3.7" height="1.4"/>
	
		<rect x="707.8" y="104.9" transform="matrix(4.362639e-03 -1 1 4.362639e-03 601.0323 814.7872)" class="st0" width="3.7" height="1.4"/>
	<rect x="710.5" y="104.9" transform="matrix(4.362639e-03 -1 1 4.362639e-03 603.6988 817.4888)" width="3.7" height="1.4"/>
	
		<rect x="713.2" y="104.9" transform="matrix(4.362639e-03 -1 1 4.362639e-03 606.3553 820.1804)" class="st0" width="3.7" height="1.4"/>
	<rect x="715.9" y="104.9" transform="matrix(4.362639e-03 -1 1 4.362639e-03 609.0219 822.882)" width="3.7" height="1.4"/>
	<rect x="718.6" y="104.9" transform="matrix(4.362639e-03 -1 1 4.362639e-03 611.6785 825.5736)" width="3.7" height="1.4"/>
	<rect x="721.3" y="104.9" transform="matrix(4.362639e-03 -1 1 4.362639e-03 614.345 828.2753)" width="3.7" height="1.4"/>
	<rect x="639.8" y="60.9" transform="matrix(4.362639e-03 -1 1 4.362639e-03 591.6412 744.8771)" width="60.1" height="28.8"/>
	<rect x="669.2" y="29.8" transform="matrix(4.362639e-03 -1 1 4.362639e-03 622.0219 714.8913)" width="1.7" height="30.5"/>
	<rect x="666" y="32.6" transform="matrix(4.362639e-03 -1 1 4.362639e-03 621.0076 715.8925)" width="8.1" height="26.9"/>
	<rect x="659.6" y="37.8" transform="matrix(4.362639e-03 -1 1 4.362639e-03 617.9482 706.8969)" width="8.8" height="10.7"/>
	<polygon points="664.8,41.2 658.7,41.2 658.7,36.5 663.1,36.5 	"/>
	<rect x="656.3" y="37.6" transform="matrix(4.362639e-03 -1 1 4.362639e-03 620.6981 699.1368)" width="10.3" height="0.6"/>
	<path d="M662,32.1c0,0.3-0.2,0.5-0.5,0.5s-0.5-0.2-0.5-0.5c0-0.3,0.2-0.5,0.5-0.5c0,0,0,0,0,0C661.8,31.6,662,31.9,662,32.1z"/>
	<polygon points="922.9,111.1 891.4,110.9 887.8,22.5 923.3,30 	"/>
	<polygon points="785.4,60 785.6,30.4 780.6,30.4 780.7,22.5 778.9,22.5 778.9,10.9 769.2,10.8 769.2,2.3 768.4,2.3 768.3,10.8 
		766.4,10.8 766.5,0.1 765.6,0.1 765.6,10.8 759.4,10.8 759.3,30.3 756.1,30.3 756,59.9 753.3,59.8 753,113.7 787.1,113.8 787.4,60 
			"/>
	<rect x="956" y="-80.7" transform="matrix(4.362639e-03 -1 1 4.362639e-03 848.4711 1067.8965)" width="9" height="377.1"/>
	<polygon points="993.9,110.3 977.2,110.2 983.9,76.8 994.1,76.9 	"/>
	<rect x="949.3" y="-79.5" transform="matrix(4.362639e-03 -1 1 4.362639e-03 833.681 1074.3356)" width="14.1" height="395.9"/>
	<polygon points="980.5,48.4 980.6,33.5 975.2,33.5 975.2,27.9 972.4,27.9 972.4,23.1 971.4,23.1 971.4,15 971.2,15 971.1,23.1 
		970.1,23.1 970.1,27.9 967.2,27.8 967.2,33.5 961.9,33.5 961.8,48.3 960.7,48.3 960.6,75.2 952.4,75.1 952.2,105.8 960.5,105.8 
		968.7,105.9 981.3,105.9 981.6,48.4 	"/>
	<polygon points="1011.3,65.5 985.3,65.4 985.3,65.9 986.5,65.9 986.3,109.8 1009.9,109.9 1010.1,66 1011.3,66 	"/>
	<rect x="863" y="82.7" transform="matrix(4.362639e-03 -1 1 4.362639e-03 783.2864 975.0252)" width="36.6" height="23"/>
	<rect x="837.6" y="83.6" transform="matrix(4.362639e-03 -1 1 4.362639e-03 739.4246 949.3981)" width="17.8" height="39.6"/>
	<rect x="830.5" y="72.2" transform="matrix(4.362639e-03 -1 1 4.362639e-03 772.1153 928.5726)" width="43.8" height="8.7"/>
	<rect x="838.4" y="54.6" transform="matrix(4.362639e-03 -1 1 4.362639e-03 791.6932 904.8873)" width="23.8" height="0.5"/>
	<rect x="839.8" y="56.5" transform="matrix(4.362639e-03 -1 1 4.362639e-03 791.3226 908.1479)" width="23.8" height="0.5"/>
	<rect x="848.5" y="52.2" transform="matrix(4.362639e-03 -1 1 4.362639e-03 792.8629 906.0724)" width="5.9" height="5.3"/>
	<rect x="857.3" y="89.8" transform="matrix(4.362639e-03 -1 1 4.362639e-03 771.1207 969.2579)" width="30" height="15.1"/>
	<rect x="879.9" y="67.5" transform="matrix(4.362639e-03 -1 1 4.362639e-03 825.124 992.0727)" width="61.8" height="28.4"/>
	<rect x="905.7" y="42.4" transform="matrix(4.362639e-03 -1 1 4.362639e-03 853.1045 964.456)" width="10.3" height="22.8"/>
	<rect x="910.5" y="36.1" transform="matrix(4.362639e-03 -1 1 4.362639e-03 854.4753 963.1029)" width="0.7" height="32.8"/>
	<rect x="882.4" y="90.2" transform="matrix(4.362639e-03 -1 1 4.362639e-03 797.2184 994.5244)" width="31.2" height="13.4"/>
	<rect x="787.1" y="88.2" transform="matrix(4.362639e-03 -1 1 4.362639e-03 703.8639 898.7347)" width="32.4" height="15.3"/>
	<rect x="795.3" y="76.3" transform="matrix(4.362639e-03 -1 1 4.362639e-03 720.7531 907.0075)" width="41.2" height="30.6"/>
	<rect x="814.7" y="53.6" transform="matrix(4.362639e-03 -1 1 4.362639e-03 741.7348 885.3171)" width="1.6" height="33.2"/>
	<rect x="804.6" y="62.5" transform="matrix(4.362639e-03 -1 1 4.362639e-03 735.9774 877.6859)" width="8.3" height="13.4"/>
	<rect x="818.4" y="66.5" transform="matrix(4.362639e-03 -1 1 4.362639e-03 749.7426 888.3481)" width="5.1" height="2.3"/>
	<rect x="823.1" y="66.4" transform="matrix(4.362639e-03 -1 1 4.362639e-03 754.3322 892.9981)" width="5.1" height="2.5"/>
	<rect x="789" y="97.8" transform="matrix(4.362639e-03 -1 1 4.362639e-03 685.9509 900.5333)" width="12.5" height="16"/>
	<rect x="776" y="99.3" transform="matrix(4.362639e-03 -1 1 4.362639e-03 678.4321 887.6021)" width="17.8" height="7.6"/>
	<rect x="775.3" y="102.4" transform="matrix(4.362639e-03 -1 1 4.362639e-03 666.1987 886.8085)" width="6.3" height="13"/>
	<rect x="995" y="26.1" transform="matrix(4.362639e-03 -1 1 4.362639e-03 891.553 1107.4982)" width="13.9" height="159.8"/>
	<rect x="1068" y="82.9" transform="matrix(4.362639e-03 -1 1 4.362639e-03 986.0917 1180.9142)" width="36.2" height="24.7"/>
	<rect x="1096.2" y="89.9" transform="matrix(4.362639e-03 -1 1 4.362639e-03 1000.0178 1208.9247)" width="21.9" height="24.7"/>
	<rect x="996.9" y="89.9" transform="matrix(4.362639e-03 -1 1 4.362639e-03 904.8073 1102.4761)" width="18.4" height="13.8"/>
	<rect x="1059.6" y="69.4" transform="matrix(4.362639e-03 -1 1 4.362639e-03 1012.0097 1172.642)" width="70.5" height="17.4"/>
	<polygon points="1132.2,113.5 1109.2,113.4 1109.4,72.2 1126.8,72.3 	"/>
	<rect x="1127.5" y="98.7" transform="matrix(4.362639e-03 -1 1 4.362639e-03 1018.4504 1240.5471)" width="9.4" height="20.2"/>
	<rect x="1090" y="37.4" transform="matrix(4.362639e-03 -1 1 4.362639e-03 1057.0701 1137.1195)" width="19.2" height="0.6"/>
	<rect x="1092" y="41.5" transform="matrix(4.362639e-03 -1 1 4.362639e-03 1054.9545 1143.2323)" width="19.2" height="0.6"/>
	<rect x="1088.1" y="44.2" transform="matrix(4.362639e-03 -1 1 4.362639e-03 1048.4572 1141.9526)" width="19.2" height="0.6"/>
	<rect x="1111.1" y="68.1" transform="matrix(4.362639e-03 -1 1 4.362639e-03 1037.3307 1186.2437)" width="6.5" height="8.2"/>
	<rect x="1112.6" y="65.2" transform="matrix(4.362639e-03 -1 1 4.362639e-03 1041.0819 1182.5313)" width="3.7" height="6.4"/>
	<rect x="1121.3" y="71.4" transform="matrix(4.362639e-03 -1 1 4.362639e-03 1045.4745 1194.4243)" width="2.6" height="1.6"/>
	<rect x="1122.5" y="69.9" transform="matrix(4.362639e-03 -1 1 4.362639e-03 1049.123 1195.7205)" width="5" height="2.3"/>
	<rect x="585.3" y="79.4" transform="matrix(4.362639e-03 -1 1 4.362639e-03 526.4009 708.518)" width="67.4" height="20.9"/>
	<rect x="618.8" y="44.9" transform="matrix(4.362639e-03 -1 1 4.362639e-03 559.5235 675.8361)" width="0.7" height="24"/>
	<rect x="618.8" y="55" transform="matrix(4.362639e-03 -1 1 4.362639e-03 550.0076 685.2183)" width="0.7" height="22.7"/>
	<rect x="618.7" y="64.2" transform="matrix(4.362639e-03 -1 1 4.362639e-03 540.7879 694.3182)" width="0.7" height="22.7"/>
	<rect x="618.7" y="73.4" transform="matrix(4.362639e-03 -1 1 4.362639e-03 531.5782 703.4081)" width="0.7" height="22.7"/>
	<rect x="618.7" y="82.6" transform="matrix(4.362639e-03 -1 1 4.362639e-03 522.3686 712.498)" width="0.7" height="22.7"/>
	<rect x="618.6" y="91.7" transform="matrix(4.362639e-03 -1 1 4.362639e-03 513.1489 721.5978)" width="0.7" height="22.7"/>
	<rect x="618.6" y="100.9" transform="matrix(4.362639e-03 -1 1 4.362639e-03 503.9392 730.6877)" width="0.7" height="22.7"/>
	<rect x="618.2" y="42.8" transform="matrix(4.362639e-03 -1 1 4.362639e-03 560.7941 674.5721)" width="1.9" height="25.6"/>
	
		<rect x="608.9" y="61.1" transform="matrix(4.362639e-03 -1 1 4.362639e-03 546.8113 673.5127)" class="st0" width="5.4" height="2.2"/>
	<rect x="613.8" y="61.1" transform="matrix(4.362639e-03 -1 1 4.362639e-03 551.6387 678.4037)" width="5.4" height="2.2"/>
	<rect x="618.7" y="61.1" transform="matrix(4.362639e-03 -1 1 4.362639e-03 556.4563 683.2849)" width="5.4" height="2.2"/>
	<rect x="623.5" y="61.1" transform="matrix(4.362639e-03 -1 1 4.362639e-03 561.2739 688.1658)" width="5.4" height="2.2"/>
	<rect x="608.9" y="69.9" transform="matrix(4.362639e-03 -1 1 4.362639e-03 537.9631 682.2458)" width="5.4" height="2.2"/>
	
		<rect x="613.8" y="69.9" transform="matrix(4.362639e-03 -1 1 4.362639e-03 542.7906 687.1368)" class="st0" width="5.4" height="2.2"/>
	<rect x="618.6" y="69.9" transform="matrix(4.362639e-03 -1 1 4.362639e-03 547.6082 692.0179)" width="5.4" height="2.2"/>
	<rect x="623.5" y="69.9" transform="matrix(4.362639e-03 -1 1 4.362639e-03 552.4257 696.8989)" width="5.4" height="2.2"/>
	<rect x="608.9" y="79.1" transform="matrix(4.362639e-03 -1 1 4.362639e-03 528.7535 691.3357)" width="5.4" height="2.2"/>
	<rect x="613.7" y="79.1" transform="matrix(4.362639e-03 -1 1 4.362639e-03 533.581 696.2267)" width="5.4" height="2.2"/>
	<rect x="618.6" y="79.1" transform="matrix(4.362639e-03 -1 1 4.362639e-03 538.3986 701.1078)" width="5.4" height="2.2"/>
	
		<rect x="623.5" y="79.1" transform="matrix(4.362639e-03 -1 1 4.362639e-03 543.2161 705.9888)" class="st0" width="5.4" height="2.2"/>
	<rect x="608.8" y="88.2" transform="matrix(4.362639e-03 -1 1 4.362639e-03 519.5438 700.4255)" width="5.4" height="2.2"/>
	
		<rect x="613.7" y="88.2" transform="matrix(4.362639e-03 -1 1 4.362639e-03 524.3713 705.3167)" class="st0" width="5.4" height="2.2"/>
	
		<rect x="618.6" y="88.3" transform="matrix(4.362639e-03 -1 1 4.362639e-03 529.1889 710.1977)" class="st0" width="5.4" height="2.2"/>
	<rect x="623.4" y="88.3" transform="matrix(4.362639e-03 -1 1 4.362639e-03 534.0064 715.0787)" width="5.4" height="2.2"/>
	
		<rect x="608.8" y="97.4" transform="matrix(4.362639e-03 -1 1 4.362639e-03 510.3242 709.5254)" class="st0" width="5.4" height="2.2"/>
	<rect x="613.7" y="97.4" transform="matrix(4.362639e-03 -1 1 4.362639e-03 515.1516 714.4164)" width="5.4" height="2.2"/>
	<rect x="618.5" y="97.4" transform="matrix(4.362639e-03 -1 1 4.362639e-03 519.9692 719.2975)" width="5.4" height="2.2"/>
	<rect x="623.4" y="97.5" transform="matrix(4.362639e-03 -1 1 4.362639e-03 524.7867 724.1785)" width="5.4" height="2.2"/>
	<rect x="608.7" y="106.6" transform="matrix(4.362639e-03 -1 1 4.362639e-03 501.1145 718.6153)" width="5.4" height="2.2"/>
	<rect x="613.6" y="106.6" transform="matrix(4.362639e-03 -1 1 4.362639e-03 505.942 723.5063)" width="5.4" height="2.2"/>
	
		<rect x="618.5" y="106.6" transform="matrix(4.362639e-03 -1 1 4.362639e-03 510.7596 728.3874)" class="st0" width="5.4" height="2.2"/>
	<rect x="623.3" y="106.6" transform="matrix(4.362639e-03 -1 1 4.362639e-03 515.5771 733.2684)" width="5.4" height="2.2"/>
	<rect x="608.7" y="115.7" transform="matrix(4.362639e-03 -1 1 4.362639e-03 491.9048 727.7052)" width="5.4" height="2.2"/>
	
		<rect x="613.6" y="115.8" transform="matrix(4.362639e-03 -1 1 4.362639e-03 496.7323 732.5963)" class="st0" width="5.4" height="2.2"/>
	<rect x="618.4" y="115.8" transform="matrix(4.362639e-03 -1 1 4.362639e-03 501.5499 737.4773)" width="5.4" height="2.2"/>
	
		<rect x="623.3" y="115.8" transform="matrix(4.362639e-03 -1 1 4.362639e-03 506.3674 742.3583)" class="st0" width="5.4" height="2.2"/>
	<rect x="611.8" y="50.3" transform="matrix(4.362639e-03 -1 1 4.362639e-03 557.0203 667.2333)" width="3.5" height="7.1"/>
	<rect x="613.3" y="48.3" transform="matrix(4.362639e-03 -1 1 4.362639e-03 558.5771 665.6968)" width="0.6" height="8.1"/>
	<polygon points="578.4,123.4 550.6,123.3 550.8,59.3 578.7,52.6 	"/>
	<rect x="518.1" y="89.5" transform="matrix(4.362639e-03 -1 1 4.362639e-03 457.5627 641.0328)" width="65.2" height="2.5"/>
	<rect x="524.1" y="88.6" transform="matrix(4.362639e-03 -1 1 4.362639e-03 465.3909 647.106)" width="67" height="2.5"/>
	<rect x="530.2" y="87.7" transform="matrix(4.362639e-03 -1 1 4.362639e-03 473.2592 653.1595)" width="68.9" height="2.5"/>
	<rect x="536.4" y="87" transform="matrix(4.362639e-03 -1 1 4.362639e-03 480.9416 659.3964)" width="70.5" height="2.5"/>
	<rect x="542.5" y="86.1" transform="matrix(4.362639e-03 -1 1 4.362639e-03 488.6794 665.5588)" width="72.2" height="2.5"/>
	
		<rect x="551.8" y="64.5" transform="matrix(4.362639e-03 -1 1 4.362639e-03 485.7739 620.0882)" class="st0" width="4.9" height="3.3"/>
	
		<rect x="558.8" y="64.5" transform="matrix(4.362639e-03 -1 1 4.362639e-03 492.6732 627.0783)" class="st0" width="4.9" height="3.3"/>
	<rect x="565.7" y="64.5" transform="matrix(4.362639e-03 -1 1 4.362639e-03 499.5822 634.0784)" width="4.9" height="3.3"/>
	
		<rect x="572.7" y="64.6" transform="matrix(4.362639e-03 -1 1 4.362639e-03 506.4914 641.0786)" class="st0" width="4.9" height="3.3"/>
	<rect x="551.8" y="73.1" transform="matrix(4.362639e-03 -1 1 4.362639e-03 477.1166 628.6329)" width="4.9" height="3.3"/>
	<rect x="558.7" y="73.1" transform="matrix(4.362639e-03 -1 1 4.362639e-03 484.0159 635.623)" width="4.9" height="3.3"/>
	
		<rect x="565.7" y="73.2" transform="matrix(4.362639e-03 -1 1 4.362639e-03 490.925 642.6232)" class="st0" width="4.9" height="3.3"/>
	
		<rect x="572.7" y="73.2" transform="matrix(4.362639e-03 -1 1 4.362639e-03 497.8341 649.6233)" class="st0" width="4.9" height="3.3"/>
	
		<rect x="551.7" y="81.7" transform="matrix(4.362639e-03 -1 1 4.362639e-03 468.4594 637.1776)" class="st0" width="4.9" height="3.3"/>
	
		<rect x="558.7" y="81.7" transform="matrix(4.362639e-03 -1 1 4.362639e-03 475.3586 644.1677)" class="st0" width="4.9" height="3.3"/>
	
		<rect x="565.7" y="81.8" transform="matrix(4.362639e-03 -1 1 4.362639e-03 482.2677 651.1678)" class="st0" width="4.9" height="3.3"/>
	<rect x="572.6" y="81.8" transform="matrix(4.362639e-03 -1 1 4.362639e-03 489.1768 658.168)" width="4.9" height="3.3"/>
	
		<rect x="551.7" y="90.3" transform="matrix(4.362639e-03 -1 1 4.362639e-03 459.8021 645.7224)" class="st0" width="4.9" height="3.3"/>
	<rect x="558.7" y="90.4" transform="matrix(4.362639e-03 -1 1 4.362639e-03 466.7013 652.7125)" width="4.9" height="3.3"/>
	
		<rect x="565.6" y="90.4" transform="matrix(4.362639e-03 -1 1 4.362639e-03 473.6104 659.7126)" class="st0" width="4.9" height="3.3"/>
	
		<rect x="572.6" y="90.4" transform="matrix(4.362639e-03 -1 1 4.362639e-03 480.5196 666.7127)" class="st0" width="4.9" height="3.3"/>
	
		<rect x="551.7" y="98.9" transform="matrix(4.362639e-03 -1 1 4.362639e-03 451.1448 654.267)" class="st0" width="4.9" height="3.3"/>
	
		<rect x="558.6" y="99" transform="matrix(4.362639e-03 -1 1 4.362639e-03 458.044 661.2571)" class="st0" width="4.9" height="3.3"/>
	<rect x="565.6" y="99" transform="matrix(4.362639e-03 -1 1 4.362639e-03 464.9531 668.2573)" width="4.9" height="3.3"/>
	
		<rect x="572.6" y="99" transform="matrix(4.362639e-03 -1 1 4.362639e-03 471.8623 675.2574)" class="st0" width="4.9" height="3.3"/>
	<rect x="551.6" y="107.6" transform="matrix(4.362639e-03 -1 1 4.362639e-03 442.4775 662.8217)" width="4.9" height="3.3"/>
	<rect x="558.6" y="107.6" transform="matrix(4.362639e-03 -1 1 4.362639e-03 449.3767 669.8118)" width="4.9" height="3.3"/>
	
		<rect x="565.6" y="107.6" transform="matrix(4.362639e-03 -1 1 4.362639e-03 456.2858 676.8119)" class="st0" width="4.9" height="3.3"/>
	
		<rect x="572.5" y="107.7" transform="matrix(4.362639e-03 -1 1 4.362639e-03 463.1949 683.8121)" class="st0" width="4.9" height="3.3"/>
	
		<rect x="551.6" y="116.2" transform="matrix(4.362639e-03 -1 1 4.362639e-03 433.8202 671.3663)" class="st0" width="4.9" height="3.3"/>
	<rect x="558.5" y="116.2" transform="matrix(4.362639e-03 -1 1 4.362639e-03 440.7194 678.3565)" width="4.9" height="3.3"/>
	
		<rect x="565.5" y="116.3" transform="matrix(4.362639e-03 -1 1 4.362639e-03 447.6285 685.3566)" class="st0" width="4.9" height="3.3"/>
	<rect x="572.5" y="116.3" transform="matrix(4.362639e-03 -1 1 4.362639e-03 454.5377 692.3568)" width="4.9" height="3.3"/>
	<polygon points="471.3,62 471.3,62.6 470.7,62.6 470.6,64.5 482.3,64.6 482.1,123 462.9,122.9 463.2,67.6 463.2,64.5 463.2,62.6 
		462.5,62.6 462.5,61.9 	"/>
	<rect x="494.7" y="97.7" transform="matrix(4.362639e-03 -1 1 4.362639e-03 403.7544 617.3912)" width="34.5" height="16.4"/>
	<rect x="417.8" y="95" transform="matrix(4.362639e-03 -1 1 4.362639e-03 335.3988 540.1902)" width="42.3" height="13.3"/>
	<rect x="433.5" y="98.9" transform="matrix(4.362639e-03 -1 1 4.362639e-03 342.1512 555.8904)" width="33.5" height="14.5"/>
	<rect x="437.6" y="78.4" transform="matrix(4.362639e-03 -1 1 4.362639e-03 356.8924 521.1075)" width="5.1" height="5.9"/>
	<rect x="451.2" y="81.7" transform="matrix(4.362639e-03 -1 1 4.362639e-03 360.3855 540.8276)" width="1.2" height="15.5"/>
	<rect x="454.5" y="105.2" transform="matrix(4.362639e-03 -1 1 4.362639e-03 348.6392 576.9274)" width="19.2" height="16.3"/>
	<rect x="392.6" y="98.7" transform="matrix(4.362639e-03 -1 1 4.362639e-03 302.8107 514.8364)" width="34.7" height="13.2"/>
	<rect x="391.8" y="105.2" transform="matrix(4.362639e-03 -1 1 4.362639e-03 284.8054 513.9702)" width="17.4" height="17.4"/>
	<rect x="367.9" y="107" transform="matrix(4.362639e-03 -1 1 4.362639e-03 263.9825 490.0305)" width="20.3" height="10.9"/>
	<rect x="391.1" y="106.6" transform="matrix(4.362639e-03 -1 1 4.362639e-03 273.0559 513.2048)" width="6.3" height="25.8"/>
	<rect x="365.1" y="111.7" transform="matrix(4.362639e-03 -1 1 4.362639e-03 249.3881 487.146)" width="8.4" height="13.2"/>
	<rect x="420.4" y="106.1" transform="matrix(4.362639e-03 -1 1 4.362639e-03 308.5359 542.6536)" width="12.8" height="20.5"/>
	<rect x="489.9" y="104.3" transform="matrix(4.362639e-03 -1 1 4.362639e-03 370.2144 612.4569)" width="5.5" height="32"/>
	<rect x="546.6" y="104.6" transform="matrix(4.362639e-03 -1 1 4.362639e-03 426.3795 669.3619)" width="5.5" height="32"/>
	<polygon points="507.5,101.4 495.3,101.4 490.1,120.3 507.4,120.4 	"/>
	<rect x="502.8" y="84.2" transform="matrix(4.362639e-03 -1 1 4.362639e-03 426.7511 597.3405)" width="21" height="0.3"/>
	<rect x="508.9" y="87" transform="matrix(4.362639e-03 -1 1 4.362639e-03 425.6587 601.8785)" width="12.4" height="0.5"/>
	<rect x="512.4" y="83.2" transform="matrix(4.362639e-03 -1 1 4.362639e-03 427.0239 601.3834)" width="6.2" height="6.2"/>
	<rect x="515.2" y="78.9" transform="matrix(4.362639e-03 -1 1 4.362639e-03 430.2834 598.097)" width="0.6" height="8.1"/>
	<rect x="518.1" y="104.4" transform="matrix(4.362639e-03 -1 1 4.362639e-03 410.396 640.8638)" width="17.8" height="19.9"/>
	<rect x="522.4" y="96.7" transform="matrix(4.362639e-03 -1 1 4.362639e-03 434.1456 642.2267)" width="34.3" height="12.8"/>
	<rect x="577.8" y="97.9" transform="matrix(4.362639e-03 -1 1 4.362639e-03 482.5566 700.7972)" width="30.9" height="20.4"/>
	<rect x="582.5" y="106.2" transform="matrix(4.362639e-03 -1 1 4.362639e-03 467.8427 705.4855)" width="11.4" height="23.2"/>
	<rect x="607.7" y="114" transform="matrix(4.362639e-03 -1 1 4.362639e-03 485.5684 730.7869)" width="4.1" height="15.1"/>
	<rect x="632.1" y="105.7" transform="matrix(4.362639e-03 -1 1 4.362639e-03 516.9946 755.285)" width="11.4" height="24.6"/>
	<rect x="630.1" y="87.9" transform="matrix(4.362639e-03 -1 1 4.362639e-03 544.6323 753.3754)" width="41.2" height="30.6"/>
	<rect x="650.5" y="65.2" transform="matrix(4.362639e-03 -1 1 4.362639e-03 566.6053 732.6893)" width="1.6" height="33.2"/>
	<rect x="653.8" y="74.2" transform="matrix(4.362639e-03 -1 1 4.362639e-03 574.1707 738.5163)" width="8.4" height="13.4"/>
	<rect x="643.2" y="78.1" transform="matrix(4.362639e-03 -1 1 4.362639e-03 563.6896 724.6127)" width="5.1" height="2.3"/>
	<rect x="638.6" y="78" transform="matrix(4.362639e-03 -1 1 4.362639e-03 559.1099 719.9727)" width="5.1" height="2.5"/>
	<rect x="669" y="81.8" transform="matrix(4.362639e-03 -1 1 4.362639e-03 602.1404 792.5975)" width="60.1" height="24.2"/>
	<rect x="698.4" y="50.9" transform="matrix(4.362639e-03 -1 1 4.362639e-03 632.5413 762.592)" width="1.7" height="25.6"/>
	<rect x="695.2" y="53.4" transform="matrix(4.362639e-03 -1 1 4.362639e-03 631.5169 763.6031)" width="8.1" height="22.6"/>
	<rect x="699.9" y="57.3" transform="matrix(4.362639e-03 -1 1 4.362639e-03 639.5101 765.8057)" width="8.8" height="8.9"/>
	<polygon points="703.6,59.8 708.8,59.8 708.8,55.2 705.1,55.2 	"/>
	<rect x="701.3" y="56.3" transform="matrix(4.362639e-03 -1 1 4.362639e-03 646.9041 762.7507)" width="10.4" height="0.5"/>
	<path d="M706.1,50.8c0,0.3,0.2,0.5,0.4,0.5c0.3,0.1,0.6-0.1,0.6-0.4c0.1-0.3-0.1-0.6-0.4-0.6C706.4,50.2,706.1,50.4,706.1,50.8
		C706.1,50.7,706.1,50.7,706.1,50.8z"/>
	<rect x="700.8" y="106.2" transform="matrix(4.362639e-03 -1 1 4.362639e-03 598.5001 824.3549)" width="24.8" height="10.8"/>
	<rect x="664.7" y="99.3" transform="matrix(4.362639e-03 -1 1 4.362639e-03 574.749 788.1376)" width="36.9" height="12.3"/>
	<polygon points="683.1,123.9 665.7,123.8 665.8,104.1 680.4,110.7 	"/>
	<rect x="723" y="105.5" transform="matrix(4.362639e-03 -1 1 4.362639e-03 606.4172 846.5587)" width="10.7" height="26.6"/>
	<rect x="718.2" y="95" transform="matrix(4.362639e-03 -1 1 4.362639e-03 633.6339 841.8923)" width="42.8" height="15.4"/>
	<rect x="752.4" y="107.4" transform="matrix(4.362639e-03 -1 1 4.362639e-03 632.891 876.1232)" width="8" height="25.6"/>
	<rect x="739" y="72.8" transform="matrix(4.362639e-03 -1 1 4.362639e-03 655.1873 820.5299)" width="1.4" height="16.9"/>
	<rect x="740.9" y="78.7" transform="matrix(4.362639e-03 -1 1 4.362639e-03 663.0995 823.675)" width="8.6" height="0.3"/>
	<rect x="739.5" y="78.9" transform="matrix(4.362639e-03 -1 1 4.362639e-03 660.6232 821.6382)" width="6.9" height="0.3"/>
	<polygon points="753.1,97.5 746.2,97.5 746.1,117.1 755.9,117.2 	"/>
	<polyline class="st1" points="1142.3,104.2 1164.1,104.6 1186.8,91.4 1208.2,86.2 1222.8,84.8 1244.1,84.9 1264.1,90.4 
		1274.8,90.4 1290.7,102.4 1312,108 1326.6,108.1 1339.9,111.8 1358.6,114.6 1377.3,104.2 1393.3,100.3 1404,88.3 1422.6,104.4 
		1431.8,114.9 1479.7,127.3 1154.3,126.4 	"/>
	<path class="st1" d="M369.4,113.6l-33.9,1.5l-38.6-4.2l-29.3-8l-10.6-12l-29.2-4.1l-24-9.5l-12,26.8l-22.3,13.1l-33.8,3.9
		l-50.5-20.4L74.3,80.1c-14.7,1-28.6,6.7-39.8,16.2l-18.7,16l-16.1,14.6l369.6-5"/>
</g>
</svg>
