<?xml version="1.0" encoding="utf-8"?>
<!-- Generator: Adobe Illustrator 22.0.1, SVG Export Plug-In . SVG Version: 6.00 Build 0)  -->
<svg version="1.1" xmlns="http://www.w3.org/2000/svg" xmlns:xlink="http://www.w3.org/1999/xlink" x="0px" y="0px"
	 viewBox="0 0 1000 700" style="enable-background:new 0 0 1000 700;" xml:space="preserve">
<style type="text/css">
	.st0{opacity:0.29;}
	.st1{fill-rule:evenodd;clip-rule:evenodd;}
</style>
<g id="Bg">
</g>
<g id="Shadow">
</g>
<g id="Object">
	<g>
		<g>
			<g>
				<g>
					<g>
						<rect x="478.1" y="495.7" width="12.1" height="47.9"/>
						<rect x="480.1" y="492.3" width="8.2" height="20.1"/>
						<rect x="481.9" y="490.1" width="4.5" height="11.2"/>
						<polygon points="485.7,495.8 482.6,495.8 482.6,488.2 483.7,488.2 484.9,488.2 485.7,488.2 						"/>
						<g>
							<polygon points="484,492.5 483.6,492.5 483.6,484.9 483.8,484.9 483.9,484.9 484,484.9 							"/>
							<polygon points="484.7,489.9 484.4,489.9 484.4,482.3 484.5,482.3 484.6,482.3 484.7,482.3 							"/>
						</g>
						<rect x="477.8" y="495.6" width="12.8" height="0.5"/>
						<rect x="479.8" y="492" width="8.8" height="0.5"/>
						<rect x="481.6" y="489.9" width="5" height="0.4"/>
						<rect x="480.8" y="493.1" class="st0" width="0.4" height="2.1"/>
						<rect x="481.9" y="493.1" class="st0" width="0.4" height="2.1"/>
						<rect x="482.9" y="493.1" class="st0" width="0.4" height="2.1"/>
						<rect x="484" y="493.1" class="st0" width="0.4" height="2.1"/>
						<rect x="485" y="493.1" class="st0" width="0.4" height="2.1"/>
						<rect x="486.1" y="493.1" class="st0" width="0.4" height="2.1"/>
						<rect x="487.1" y="493.1" class="st0" width="0.4" height="2.1"/>
						<rect x="479.2" y="497.6" width="0.9" height="2.5"/>
						<rect x="481" y="497.6" class="st0" width="0.9" height="2.5"/>
						<rect x="482.8" y="497.6" width="0.9" height="2.5"/>
						<rect x="484.6" y="497.6" width="0.9" height="2.5"/>
						<rect x="486.4" y="497.6" width="0.9" height="2.5"/>
						<rect x="488.3" y="497.6" width="0.9" height="2.5"/>
						<rect x="479.2" y="501.5" width="0.9" height="2.5"/>
						<rect x="481" y="501.5" width="0.9" height="2.5"/>
						<rect x="482.8" y="501.5" width="0.9" height="2.5"/>
						<rect x="484.6" y="501.5" class="st0" width="0.9" height="2.5"/>
						<rect x="486.4" y="501.5" width="0.9" height="2.5"/>
						<rect x="488.3" y="501.5" width="0.9" height="2.5"/>
						<rect x="479.2" y="505.4" width="0.9" height="2.5"/>
						<rect x="481" y="505.4" width="0.9" height="2.5"/>
						<rect x="482.8" y="505.4" width="0.9" height="2.5"/>
						<rect x="484.6" y="505.4" width="0.9" height="2.5"/>
						<rect x="486.4" y="505.4" class="st0" width="0.9" height="2.5"/>
						<rect x="488.3" y="505.4" class="st0" width="0.9" height="2.5"/>
						<rect x="479.2" y="509.3" class="st0" width="0.9" height="2.5"/>
						<rect x="481" y="509.3" width="0.9" height="2.5"/>
						<rect x="482.8" y="509.3" width="0.9" height="2.5"/>
						<rect x="484.6" y="509.3" width="0.9" height="2.5"/>
						<rect x="486.4" y="509.3" width="0.9" height="2.5"/>
						<rect x="488.3" y="509.3" width="0.9" height="2.5"/>
						<rect x="479.2" y="513.2" width="0.9" height="2.5"/>
						<rect x="481" y="513.2" class="st0" width="0.9" height="2.5"/>
						<rect x="482.8" y="513.2" width="0.9" height="2.5"/>
						<rect x="484.6" y="513.2" class="st0" width="0.9" height="2.5"/>
						<rect x="486.4" y="513.2" width="0.9" height="2.5"/>
						<rect x="488.3" y="513.2" width="0.9" height="2.5"/>
						<rect x="479.2" y="517.1" width="0.9" height="2.5"/>
						<rect x="481" y="517.1" width="0.9" height="2.5"/>
						<rect x="482.8" y="517.1" width="0.9" height="2.5"/>
						<rect x="484.6" y="517.1" width="0.9" height="2.5"/>
						<rect x="486.4" y="517.1" width="0.9" height="2.5"/>
						<rect x="488.3" y="517.1" class="st0" width="0.9" height="2.5"/>
						<rect x="479.2" y="521" width="0.9" height="2.5"/>
						<rect x="481" y="521" class="st0" width="0.9" height="2.5"/>
						<rect x="482.8" y="521" class="st0" width="0.9" height="2.5"/>
						<rect x="484.6" y="521" width="0.9" height="2.5"/>
						<rect x="486.4" y="521" width="0.9" height="2.5"/>
						<rect x="488.3" y="521" width="0.9" height="2.5"/>
						<rect x="479.2" y="524.9" width="0.9" height="2.5"/>
						<rect x="481" y="524.9" width="0.9" height="2.5"/>
						<rect x="482.8" y="524.9" width="0.9" height="2.5"/>
						<rect x="484.6" y="524.9" width="0.9" height="2.5"/>
						<rect x="486.4" y="524.9" class="st0" width="0.9" height="2.5"/>
						<rect x="488.3" y="524.9" width="0.9" height="2.5"/>
						<rect x="479.2" y="528.8" width="0.9" height="2.5"/>
						<rect x="481" y="528.8" class="st0" width="0.9" height="2.5"/>
						<rect x="482.8" y="528.8" width="0.9" height="2.5"/>
						<rect x="484.6" y="528.8" width="0.9" height="2.5"/>
						<rect x="486.4" y="528.8" width="0.9" height="2.5"/>
						<rect x="488.3" y="528.8" width="0.9" height="2.5"/>
						<rect x="479.2" y="532.7" width="0.9" height="2.5"/>
						<rect x="481" y="532.7" width="0.9" height="2.5"/>
						<rect x="482.8" y="532.7" width="0.9" height="2.5"/>
						<rect x="484.6" y="532.7" class="st0" width="0.9" height="2.5"/>
						<rect x="486.4" y="532.7" width="0.9" height="2.5"/>
						<rect x="488.3" y="532.7" class="st0" width="0.9" height="2.5"/>
						<rect x="479.2" y="536.6" class="st0" width="0.9" height="2.5"/>
						<rect x="481" y="536.6" width="0.9" height="2.5"/>
						<rect x="482.8" y="536.6" class="st0" width="0.9" height="2.5"/>
						<rect x="484.6" y="536.6" width="0.9" height="2.5"/>
						<rect x="486.4" y="536.6" width="0.9" height="2.5"/>
						<rect x="488.3" y="536.6" width="0.9" height="2.5"/>
					</g>
					<g>
						<rect x="442.9" y="497.5" width="19.5" height="40.3"/>
						<rect x="442.4" y="496.8" width="20.6" height="1.1"/>
						<rect x="443.6" y="495.4" width="18.2" height="5.4"/>
						<rect x="445" y="493.2" width="7.2" height="5.9"/>
						<polygon points="449.1,494.8 445,494.8 445,491.7 448,491.7 						"/>
						<rect x="446.6" y="489.1" width="0.4" height="6.9"/>
						<path d="M447.2,488.8c0,0.2-0.2,0.4-0.4,0.4c-0.2,0-0.4-0.2-0.4-0.4c0-0.2,0.2-0.4,0.4-0.4C447,488.4,447.2,488.6,447.2,488.8
							z"/>
					</g>
					<polygon points="623.7,540.9 602.4,540.9 599.7,481.6 623.7,486.6 					"/>
					<polygon points="530.7,507.1 530.7,487.2 527.3,487.2 527.3,481.9 526.2,481.9 526.2,474.1 519.6,474.1 519.6,468.4 519,468.4 
						519,474.1 517.7,474.1 517.7,467 517.1,467 517.1,474.1 512.9,474.1 512.9,487.2 510.8,487.2 510.8,507.1 509,507.1 509,543.2 
						532,543.2 532,507.1 					"/>
				</g>
				<rect x="521.7" y="535.6" width="254.8" height="6"/>
				<polygon points="671.7,540.2 660.4,540.2 664.8,517.8 671.7,517.8 				"/>
				<g>
					<rect x="512.6" y="541.1" width="267.5" height="9.5"/>
					<polygon points="662.5,498.7 662.5,488.8 658.8,488.8 658.8,485 656.9,485 656.9,481.8 656.2,481.8 656.2,476.4 656,476.4 
						656,481.8 655.4,481.8 655.4,485 653.4,485 653.4,488.8 649.8,488.8 649.8,498.7 649.1,498.7 649.1,516.7 643.5,516.7 
						643.5,537.3 649.1,537.3 654.7,537.3 663.2,537.3 663.2,498.7 					"/>
					<polygon points="683.3,510.1 665.7,510.1 665.7,510.4 666.5,510.4 666.5,539.9 682.5,539.9 682.5,510.4 683.3,510.4 					"/>
					<rect x="587.8" y="517.4" width="15.5" height="24.5"/>
					<rect x="558.7" y="530" width="26.7" height="12"/>
					<rect x="573" y="503.3" width="5.9" height="29.4"/>
					<rect x="574.3" y="495.5" width="0.3" height="16"/>
					<rect x="575.3" y="496.7" width="0.3" height="16"/>
					<rect x="573.5" y="501.5" width="3.6" height="3.9"/>
					<rect x="584.4" y="521.8" width="10.2" height="20.1"/>
					<rect x="605.8" y="500.5" width="19.2" height="41.4"/>
					<rect x="607.7" y="499.1" width="15.4" height="6.9"/>
					<rect x="604.4" y="501.4" width="22.1" height="0.5"/>
					<rect x="602.4" y="521" width="9" height="20.9"/>
					<rect x="537.7" y="520.2" width="10.4" height="21.7"/>
					<g>
						<rect x="541" y="514.3" width="20.7" height="27.6"/>
						<rect x="539.8" y="513.3" width="22.4" height="1.1"/>
						<rect x="541.9" y="510.4" width="9.1" height="5.6"/>
						<rect x="554" y="510.4" width="1.5" height="3.4"/>
						<rect x="557" y="510.4" width="1.7" height="3.4"/>
					</g>
					<rect x="532" y="533.6" width="10.8" height="8.4"/>
					<rect x="527.9" y="530" width="5.1" height="12"/>
					<rect x="521.7" y="537.8" width="8.8" height="4.2"/>
					<rect x="623.1" y="532.6" width="108" height="9.3"/>
					<rect x="725.6" y="517.7" width="16.7" height="24.2"/>
					<rect x="739.8" y="527.1" width="16.7" height="14.7"/>
					<rect x="675.2" y="525" width="9.4" height="12.3"/>
					<rect x="733.9" y="494.7" width="11.8" height="47.3"/>
					<polygon points="765.1,542 749.6,542 749.6,514.3 761.4,514.3 					"/>
					<rect x="758.3" y="535.6" width="13.6" height="6.3"/>
					<rect x="742.7" y="484.8" width="0.4" height="12.8"/>
					<rect x="744" y="487.5" width="0.4" height="12.8"/>
					<rect x="741.4" y="489.3" width="0.4" height="12.8"/>
					<rect x="750.2" y="512.1" width="5.6" height="4.3"/>
					<rect x="750.8" y="510.6" width="4.3" height="2.4"/>
					<rect x="758" y="513.4" width="1.1" height="1.8"/>
					<rect x="759.4" y="511.8" width="1.5" height="3.4"/>
				</g>
				<g>
					<g>
						<rect x="411.3" y="505" width="14.1" height="45.2"/>
						<rect x="410.2" y="505.3" width="16.2" height="0.5"/>
						<rect x="410.6" y="511.6" width="15.4" height="0.5"/>
						<rect x="410.6" y="517.8" width="15.4" height="0.5"/>
						<rect x="410.6" y="523.9" width="15.4" height="0.5"/>
						<rect x="410.6" y="530.1" width="15.4" height="0.5"/>
						<rect x="410.6" y="536.2" width="15.4" height="0.5"/>
						<rect x="410.6" y="542.4" width="15.4" height="0.5"/>
						<rect x="409.7" y="504" width="17.3" height="1.2"/>
						<rect x="412.5" y="507.2" class="st0" width="1.5" height="3.6"/>
						<rect x="415.8" y="507.2" width="1.5" height="3.6"/>
						<rect x="419.1" y="507.2" width="1.5" height="3.6"/>
						<rect x="422.4" y="507.2" width="1.5" height="3.6"/>
						<rect x="412.5" y="513.1" width="1.5" height="3.6"/>
						<rect x="415.8" y="513.1" class="st0" width="1.5" height="3.6"/>
						<rect x="419.1" y="513.1" width="1.5" height="3.6"/>
						<rect x="422.4" y="513.1" width="1.5" height="3.6"/>
						<rect x="412.5" y="519.3" width="1.5" height="3.6"/>
						<rect x="415.8" y="519.3" width="1.5" height="3.6"/>
						<rect x="419.1" y="519.3" width="1.5" height="3.6"/>
						<rect x="422.4" y="519.3" class="st0" width="1.5" height="3.6"/>
						<rect x="412.5" y="525.4" width="1.5" height="3.6"/>
						<rect x="415.8" y="525.4" class="st0" width="1.5" height="3.6"/>
						<rect x="419.1" y="525.4" class="st0" width="1.5" height="3.6"/>
						<rect x="422.4" y="525.4" width="1.5" height="3.6"/>
						<rect x="412.5" y="531.6" class="st0" width="1.5" height="3.6"/>
						<rect x="415.8" y="531.6" width="1.5" height="3.6"/>
						<rect x="419.1" y="531.6" width="1.5" height="3.6"/>
						<rect x="422.4" y="531.6" width="1.5" height="3.6"/>
						<rect x="412.5" y="537.7" width="1.5" height="3.6"/>
						<rect x="415.8" y="537.7" width="1.5" height="3.6"/>
						<rect x="419.1" y="537.7" class="st0" width="1.5" height="3.6"/>
						<rect x="422.4" y="537.7" width="1.5" height="3.6"/>
						<rect x="412.5" y="543.9" width="1.5" height="3.6"/>
						<rect x="415.8" y="543.9" class="st0" width="1.5" height="3.6"/>
						<rect x="419.1" y="543.9" width="1.5" height="3.6"/>
						<rect x="422.4" y="543.9" class="st0" width="1.5" height="3.6"/>
						<rect x="412.1" y="502.3" width="4.8" height="2.3"/>
						<rect x="411.8" y="502.2" width="5.5" height="0.4"/>
					</g>
					<g>
						<polygon points="391,550.2 372.2,550.2 372.2,507.3 391,502.7 						"/>
						<rect x="371.3" y="506.5" width="1.7" height="43.7"/>
						<rect x="376" y="505.3" width="1.7" height="44.9"/>
						<rect x="380.8" y="504" width="1.7" height="46.2"/>
						<rect x="385.5" y="503" width="1.7" height="47.3"/>
						<rect x="390.2" y="501.8" width="1.7" height="48.4"/>
						<rect x="373.4" y="510.2" class="st0" width="2.2" height="3.3"/>
						<rect x="378.1" y="510.2" class="st0" width="2.2" height="3.3"/>
						<rect x="382.8" y="510.2" width="2.2" height="3.3"/>
						<rect x="387.5" y="510.2" class="st0" width="2.2" height="3.3"/>
						<rect x="373.4" y="516" width="2.2" height="3.3"/>
						<rect x="378.1" y="516" width="2.2" height="3.3"/>
						<rect x="382.8" y="516" class="st0" width="2.2" height="3.3"/>
						<rect x="387.5" y="516" class="st0" width="2.2" height="3.3"/>
						<rect x="373.4" y="521.7" class="st0" width="2.2" height="3.3"/>
						<rect x="378.1" y="521.7" class="st0" width="2.2" height="3.3"/>
						<rect x="382.8" y="521.7" class="st0" width="2.2" height="3.3"/>
						<rect x="387.5" y="521.7" width="2.2" height="3.3"/>
						<rect x="373.4" y="527.5" class="st0" width="2.2" height="3.3"/>
						<rect x="378.1" y="527.5" width="2.2" height="3.3"/>
						<rect x="382.8" y="527.5" class="st0" width="2.2" height="3.3"/>
						<rect x="387.5" y="527.5" class="st0" width="2.2" height="3.3"/>
						<rect x="373.4" y="533.3" class="st0" width="2.2" height="3.3"/>
						<rect x="378.1" y="533.3" class="st0" width="2.2" height="3.3"/>
						<rect x="382.8" y="533.3" width="2.2" height="3.3"/>
						<rect x="387.5" y="533.3" class="st0" width="2.2" height="3.3"/>
						<rect x="373.4" y="539.1" width="2.2" height="3.3"/>
						<rect x="378.1" y="539.1" width="2.2" height="3.3"/>
						<rect x="382.8" y="539.1" class="st0" width="2.2" height="3.3"/>
						<rect x="387.5" y="539.1" class="st0" width="2.2" height="3.3"/>
						<rect x="373.4" y="544.9" class="st0" width="2.2" height="3.3"/>
						<rect x="378.1" y="544.9" width="2.2" height="3.3"/>
						<rect x="382.8" y="544.9" class="st0" width="2.2" height="3.3"/>
						<rect x="387.5" y="544.9" width="2.2" height="3.3"/>
					</g>
					<polygon points="318.5,509.3 318.5,509.8 318,509.8 318,511 325.9,511 325.9,550.2 313,550.2 313,513.1 313,511 313,509.8 
						312.5,509.8 312.5,509.3 					"/>
					<rect x="340.5" y="527.1" width="11.1" height="23.1"/>
					<g>
						<rect x="292.2" y="521.8" width="9" height="28.4"/>
						<rect x="299.4" y="527.7" width="9.8" height="22.5"/>
						<rect x="295.5" y="520.7" width="4" height="3.4"/>
						<rect x="300.1" y="527.4" width="10.5" height="0.8"/>
					</g>
					<rect x="308.2" y="537.4" width="11" height="12.8"/>
					<rect x="272.6" y="526.9" width="8.9" height="23.3"/>
					<rect x="264.9" y="538.5" width="11.8" height="11.7"/>
					<rect x="251.9" y="536.6" width="7.4" height="13.6"/>
					<rect x="257.9" y="546" width="17.4" height="4.3"/>
					<rect x="245.3" y="544.6" width="8.9" height="5.6"/>
					<rect x="281.6" y="541.6" width="13.9" height="8.6"/>
					<rect x="322.3" y="546.5" width="21.6" height="3.7"/>
					<rect x="360.5" y="546.5" width="21.6" height="3.7"/>
					<polygon points="343,535.7 334.8,535.7 331.3,548.4 343,548.4 					"/>
					<rect x="346.8" y="517.2" width="0.2" height="14.1"/>
					<rect x="347.9" y="521.9" width="0.3" height="8.3"/>
					<rect x="346.3" y="523.4" width="4.2" height="4.1"/>
					<rect x="345.6" y="523.1" width="5.5" height="0.4"/>
					<rect x="349.5" y="538.3" width="13.4" height="11.9"/>
					<rect x="360.4" y="525.2" width="8.6" height="23"/>
					<rect x="394.1" y="529.5" width="13.8" height="20.7"/>
					<rect x="389.7" y="542.6" width="15.7" height="7.6"/>
					<rect x="407.1" y="547.5" width="10.2" height="2.7"/>
					<rect x="422.8" y="542.6" width="16.6" height="7.6"/>
					<g>
						
							<rect x="429.4" y="522.6" transform="matrix(-1 -1.224647e-16 1.224647e-16 -1 879.4887 1072.8357)" width="20.7" height="27.6"/>
						
							<rect x="428.9" y="521.6" transform="matrix(-1 -1.224647e-16 1.224647e-16 -1 880.1603 1044.1661)" width="22.4" height="1.1"/>
						
							<rect x="440.1" y="518.7" transform="matrix(-1 -1.224647e-16 1.224647e-16 -1 889.2394 1042.9558)" width="9.1" height="5.6"/>
						
							<rect x="435.6" y="518.7" transform="matrix(-1 -1.224647e-16 1.224647e-16 -1 872.7039 1040.7622)" width="1.5" height="3.4"/>
						
							<rect x="432.4" y="518.7" transform="matrix(-1 -1.224647e-16 1.224647e-16 -1 866.4528 1040.7622)" width="1.7" height="3.4"/>
					</g>
					<g>
						
							<rect x="464.3" y="509.9" transform="matrix(-1 -1.224647e-16 1.224647e-16 -1 944.9055 1060.1223)" width="16.4" height="40.3"/>
						
							<rect x="463.8" y="509.2" transform="matrix(-1 -1.224647e-16 1.224647e-16 -1 944.9055 1019.5516)" width="17.3" height="1.1"/>
						
							<rect x="464.8" y="507.7" transform="matrix(-1 -1.224647e-16 1.224647e-16 -1 944.9055 1020.9113)" width="15.3" height="5.4"/>
						<rect x="472.9" y="505.5" transform="matrix(-1 -1.224647e-16 1.224647e-16 -1 951.7837 1016.9799)" width="6" height="5.9"/>
						<polygon points="475.4,507.2 478.9,507.2 478.9,504.1 476.4,504.1 						"/>
						
							<rect x="477.2" y="501.5" transform="matrix(-1 -1.224647e-16 1.224647e-16 -1 954.6673 1009.9335)" width="0.3" height="6.9"/>
						<path d="M477,501.1c0,0.2,0.1,0.4,0.3,0.4c0.2,0,0.3-0.2,0.3-0.4c0-0.2-0.1-0.4-0.3-0.4C477.2,500.8,477,500.9,477,501.1z"/>
					</g>
					<rect x="478.4" y="533.6" width="7.3" height="16.6"/>
					<rect x="457.5" y="525.5" width="8.3" height="24.8"/>
					<polygon points="461.7,550.2 450,550.2 450,537 459.9,541.3 					"/>
					<rect x="483.3" y="543" width="18" height="7.2"/>
					<rect x="494.6" y="521.5" width="10.4" height="28.7"/>
					<rect x="502.6" y="544.9" width="17.3" height="5.4"/>
					<rect x="494.1" y="521" width="11.4" height="0.9"/>
					<rect x="503.4" y="516.9" width="0.2" height="5.8"/>
					<rect x="501.9" y="517.7" width="0.2" height="4.6"/>
					<polygon points="508.9,532.3 504.3,532.3 504.3,545.5 510.9,545.5 					"/>
				</g>
			</g>
		</g>
		<polyline class="st1" points="771.9,535.6 786.7,535.9 802,526.9 816.4,523.4 826.3,522.4 840.7,522.4 854.2,526 861.4,526 
			872.2,534 886.6,537.7 896.5,537.7 905.5,540.2 918.1,542 930.7,535 941.5,532.3 948.7,524.3 961.3,535 967.6,542 1000,550.2 
			780.1,550.5 		"/>
		<path class="st1" d="M249.7,544.2l-22.9,1.1l-26.1-2.7l-19.8-5.3l-7.2-8l-19.8-2.7l-16.2-6.3l-8.1,18l-15,8.8l-22.8,2.7
			l-34.2-13.5l-7.4-13.6c0,0-14.2,0.2-26.8,11s-12.6,10.8-12.6,10.8L0,554.3l249.7-4.4"/>
	</g>
</g>
</svg>
